<svg id="Layer_3" enable-background="new 0 0 64 64" height="40" viewBox="0 0 64 64" width="40" xmlns="http://www.w3.org/2000/svg"><g><path d="m62 50H26V2h26v10h10z" fill="#c7e2fc"/><path d="m52 2h-17.995c-1.926 3.933-3.005 8.343-3.005 13 0 16.569 13.655 30 30.5 30 .168.0.333-.01.5-.012V12H52z" fill="#ebf7fe"/><path d="m52 32 3-8 3 8v27c0 1.657-1.343 3-3 3-1.657.0-3-1.343-3-3z" fill="#efbe9a"/><path d="m62 12H52V2" fill="#8892a0"/><path d="m16 48-14-8v14l14 8z" fill="#674025"/><path d="m16 48 14-8v14l-14 8z" fill="#976947"/><path d="m24.875 42.929L30 40l-14-8-14 8 14 8 5-2.857" fill="#c18e59"/><path d="m10.875 34.929L25 43v5l-4 2v-5L7.125 37.071" fill="#674025"/><path d="m58 32-3 2-3-2v24h6z" fill="#e47c6e"/><g><path d="m29 15h2v2h-2z" fill="#8892a0"/></g><g><path d="m33 15h26v2H33z" fill="#8892a0"/></g><g><path d="m57 19h2v2h-2z" fill="#8892a0"/></g><g><path d="m29 19h26v2H29z" fill="#8892a0"/></g><g><path d="m29 23h20v2H29z" fill="#8892a0"/></g><g><path d="m29 27h20v2H29z" fill="#8892a0"/></g></g></svg>