<svg xmlns="http://www.w3.org/2000/svg" xmlns:xlink="http://www.w3.org/1999/xlink" style="isolation:isolate" viewBox="0 0 800 550" width="800pt" height="550pt"><defs><clipPath id="_clipPath_GJlL1bDC1ptL2lekcwp1BRvd4uNAkKNb"><path d="M0 0h8e2v550H0z"/></clipPath></defs><g clip-path="url(#_clipPath_GJlL1bDC1ptL2lekcwp1BRvd4uNAkKNb)"><g><path d="M613.636 491.676 491.752 502.352H247.986L126.102 491.676 247.986 481H491.752z" fill="rgb(235,235,235)"/><path d="M79.703-1.758V526.198H734.848V-1.758H79.703z" fill="none"/><path d="M81.163 267.251 81.177 267.241z"/><path d="M128.01 309.763 128.022 309.769z"/><path d="M87.696 368.673C88.153 368.673 88.608 368.673 89.079 368.673 89.326 367.183 87.626 367.436 87.696 368.673z" fill="rgb(168,209,229)"/><path d="M77.644 222.934C77.541 222.834 77.127 223.137 77.312 223.324 77.4 223.457 77.816 223.147 77.644 222.934z" fill="rgb(212,255,254)"/><path d="M81.177 267.241 81.163 267.251z"/><path d="M87.696 368.673C88.153 368.673 88.608 368.673 89.079 368.673 89.326 367.183 87.626 367.436 87.696 368.673z" fill="rgb(178,221,242)"/><g><path d="M216.797 368.314C214.859 368.359 212.351 369.262 212.316 369.922 212.277 370.579 209.609 371.793 208.712 372.14 207.844 372.498 206.131 375.215 205.755 376.124 205.384 377.03 203.213 376.753 202.394 377.107 201.592 377.48 199.94 378.807 199.936 379.611 199.936 380.407 199.475 380.319 198.936 379.4 198.936 379.4 198.936 379.4 197.872 380.518 196.616 381.919 196.616 381.919 196.616 381.919 195.898 384.173 193.508 386.995 192.677 387.27 191.878 387.49 191.716 391.454 191.716 393.04 191.716 394.65 192.351 396.618 193.112 397.42 193.112 397.42 193.112 397.42 193.262 398.7 193.553 401.215 193.553 401.215 193.553 401.215 193.112 403.166 194.574 404.905 195.017 405.256 195.442 405.584 199.089 404.607 200.47 404.271 201.052 404.135 201.773 403.811 202.443 403.466 208.95 392.596 214.034 380.817 217.575 368.392 217.305 368.318 217.039 368.294 216.797 368.314z" fill="rgb(168,209,229)"/><path d="M208.83 336.807C209.024 337.197 210.778 335.789 211.837 335.634 212.898 335.468 213.562 332.625 212.734 332.422 211.909 332.195 210.866 330.008 210.26 329.75 209.662 329.486 208.492 330.692 208.549 331.556 208.588 332.42 206.631 332.765 206.248 333.472 205.902 334.199 205.902 334.721 206.308 334.642 206.704 334.568 208.661 336.394 208.83 336.807z" fill="rgb(168,209,229)"/><path d="M206.675 352.21C207.197 352.027 206.612 349.218 205.513 348.984 204.416 348.753 201.361 352.674 201.947 354.941 202.532 357.191 203.165 357.051 203.484 356.576 203.78 356.099 205.615 356.886 206.148 357.073 206.675 357.249 206.675 356.696 206.148 355.861 205.615 355.031 206.148 352.408 206.675 352.21z" fill="rgb(168,209,229)"/><path d="M200.658 349.475C200.794 348.478 200.988 345.334 201.152 344.732 201.32 344.097 199.44 342.297 198.516 341.977 197.616 341.657 194.64 348.089 192.511 349.218 190.386 350.361 189.613 354.283 190.174 355.178 190.748 356.083 195.174 356.551 195.942 357.249 196.716 357.924 197.579 357.131 198.053 357.018 198.516 356.897 198.375 356.615 198.189 356.495 198.007 356.375 199.747 354.553 199.998 353.383 200.231 352.241 200.534 350.478 200.658 349.475z" fill="rgb(168,209,229)"/><path d="M201.921 317.448C202.452 316.719 201.192 313.28 200.562 314.055 199.936 314.822 200.377 316.834 200.586 317.542 200.794 318.236 201.406 318.181 201.921 317.448z" fill="rgb(168,209,229)"/><path d="M205.902 324.824C206.277 323.946 205.404 322.948 203.989 322.663 202.572 322.367 202.789 326.648 203.403 327.181 204.026 327.731 205.504 325.715 205.902 324.824z" fill="rgb(168,209,229)"/><path d="M213.291 351.313C214.985 352.492 218.772 351.948 218.889 349.647 217.209 348.566 213.133 348.731 213.291 351.313z" fill="rgb(168,209,229)"/><path d="M212.361 298.904C211.651 299.389 211.29 300.651 211.503 301.166L211.208 301.154C210.647 301.154 210.579 303.398 211.179 303.779 211.764 304.162 213.198 302.028 213.96 301.52 214.699 301.026 216.209 300.703 216.433 300.864 216.655 301.026 217.971 300.632 219.375 299.987 219.614 299.874 219.903 299.499 220.188 298.989 219.867 297.355 219.472 295.737 219.09 294.135 218.371 294.648 217.575 295.205 217.201 295.542 216.453 296.214 213.291 298.272 212.361 298.904z" fill="rgb(168,209,229)"/><path d="M219.706 353.087C219.271 353.328 217.115 353.575 216.809 353.163 216.54 352.731 216.105 354.037 215.641 354.234 215.198 354.457 215.442 355.584 216.135 355.222 216.611 354.985 218.656 356.126 220.309 357.169 220.633 355.514 220.925 353.876 221.195 352.195 220.603 352.516 219.981 352.954 219.706 353.087z" fill="rgb(168,209,229)"/><path d="M363.79 435.226V304.784 239.389L316.934 192.52H186.215V240.938 304.784 435.226H363.79z" fill="rgb(189,223,251)"/><path d="M316.934 239.389H363.79L316.934 192.52v46.869z" fill="rgb(43,153,241)"/><path d="M363.79 239.389H316.934L363.79 286.251V239.389z" fill="rgb(149,204,248)"/><path d="M338.194 341.285H213.118V336.959H338.194V341.285z" fill="rgb(149,204,248)"/><path d="M341.403 351.642H213.118V347.307H341.403V351.642z" fill="rgb(149,204,248)"/><path d="M338.727 361.983H213.118V357.665H338.727V361.983z" fill="rgb(149,204,248)"/><path d="M323.949 372.336H213.118V368.017H323.949V372.336z" fill="rgb(149,204,248)"/><path d="M338.194 260.667H213.118V256.341H338.194V260.667z" fill="rgb(149,204,248)"/><path d="M341.403 271.015H213.118V266.688H341.403V271.015z" fill="rgb(149,204,248)"/><path d="M338.727 281.355H213.118V277.04H338.727V281.355z" fill="rgb(149,204,248)"/><path d="M289.105 291.71H213.118V287.388H289.105V291.71z" fill="rgb(149,204,248)"/><path d="M338.194 310.137H213.118V305.808H338.194V310.137z" fill="rgb(149,204,248)"/><path d="M341.403 320.488H213.118V316.161H341.403V320.488z" fill="rgb(149,204,248)"/><path d="M338.727 330.831H213.118V326.519H338.727V330.831z" fill="rgb(149,204,248)"/><path d="M338.194 391.378H213.118V387.053H338.194V391.378z" fill="rgb(149,204,248)"/><path d="M341.403 401.724H213.118V397.403H341.403V401.724z" fill="rgb(149,204,248)"/><path d="M338.727 412.069H213.118V407.75H338.727V412.069z" fill="rgb(149,204,248)"/><path d="M289.105 422.423H213.118V418.104H289.105V422.423z" fill="rgb(149,204,248)"/><path d="M272.658 242.753H212.917V235.725H272.658V242.753z" fill="rgb(149,204,248)"/><path d="M602.813 434.812H228.911V52.79H602.813V434.812z" fill="rgb(225,238,254)"/><path d="M602.813 75.259H228.911V52.79H602.813V75.259z" fill="rgb(26,115,232)"/><path d="M245.387 64.025C245.387 66.507 243.367 68.522 240.893 68.522 238.407 68.522 236.398 66.507 236.398 64.025 236.398 61.544 238.407 59.536 240.893 59.536 243.367 59.536 245.387 61.544 245.387 64.025z" fill="rgb(149,204,248)"/><path d="M259.614 64.025C259.614 66.507 257.603 68.522 255.118 68.522 252.636 68.522 250.625 66.507 250.625 64.025 250.625 61.544 252.636 59.536 255.118 59.536 257.603 59.536 259.614 61.544 259.614 64.025z" fill="rgb(149,204,248)"/><path d="M273.841 64.025C273.841 66.507 271.831 68.522 269.347 68.522 266.865 68.522 264.854 66.507 264.854 64.025 264.854 61.544 266.865 59.536 269.347 59.536 271.831 59.536 273.841 61.544 273.841 64.025z" fill="rgb(149,204,248)"/><path d="M602.813 446.881H423.884V77.404H602.813V446.881z" fill="rgb(189,223,251)"/><path d="M602.813 141.789H423.885V77.405H602.813V141.789z" fill="rgb(254,193,47)"/><path d="M559.282 164.423H470.068V161.273H559.282V164.423z" fill="rgb(149,204,248)"/><path d="M530.942 172.819H470.068V169.669H530.942V172.819z" fill="rgb(149,204,248)"/><path d="M460.622 108.199C460.622 115.734 454.512 121.843 446.976 121.843 439.44 121.843 433.332 115.734 433.332 108.199 433.332 100.662 439.44 94.555 446.976 94.555 454.512 94.555 460.622 100.662 460.622 108.199z" fill="rgb(255,255,255)"/><path d="M559.282 105.575H470.068V102.427H559.282V105.575z" fill="rgb(255,255,255)"/><path d="M530.942 113.972H470.068V110.822H530.942V113.972z" fill="rgb(255,255,255)"/><path d="M559.282 213.403H470.068V210.256H559.282V213.403z" fill="rgb(149,204,248)"/><path d="M530.942 221.801H470.068V218.653H530.942V221.801z" fill="rgb(149,204,248)"/><path d="M559.282 262.388H470.068V259.239H559.282V262.388z" fill="rgb(149,204,248)"/><path d="M530.942 270.785H470.068V267.636H530.942V270.785z" fill="rgb(149,204,248)"/><path d="M460.622 313.994C460.622 321.531 454.512 327.638 446.976 327.638 439.44 327.638 433.332 321.531 433.332 313.994 433.332 306.459 439.44 300.35 446.976 300.35 454.512 300.35 460.622 306.459 460.622 313.994z" fill="rgb(255,255,255)"/><path d="M559.282 311.371H470.068V308.223H559.282V311.371z" fill="rgb(149,204,248)"/><path d="M530.942 319.767H470.068V316.618H530.942V319.767z" fill="rgb(149,204,248)"/><path d="M408.178 199.407H244.444V154.276H408.178v45.131z" fill="rgb(255,255,255)"/><path d="M281.18 176.842C281.18 184.379 275.07 190.487 267.534 190.487 259.999 190.487 253.89 184.379 253.89 176.842 253.89 169.307 259.999 163.198 267.534 163.198 275.07 163.198 281.18 169.307 281.18 176.842z" fill="rgb(240,47,85)"/><path d="M379.839 174.219H290.625V171.068h89.214V174.219z" fill="rgb(149,204,248)"/><path d="M351.501 182.615H290.625V179.465H351.501V182.615z" fill="rgb(149,204,248)"/><path d="M408.178 140.629H244.444V95.496H408.178V140.629z" fill="rgb(255,255,255)"/><path d="M408.178 140.629V139.93H245.142V96.196H407.476L407.477 140.629H408.178V139.93 140.629H408.878V94.797H243.743V141.329H408.878V140.629H408.178z" fill="rgb(43,153,241)"/><path d="M281.18 118.063C281.18 125.599 275.07 131.707 267.534 131.707 259.999 131.707 253.89 125.599 253.89 118.063 253.89 110.528 259.999 104.417 267.534 104.417 275.07 104.417 281.18 110.528 281.18 118.063z" fill="rgb(254,193,47)"/><path d="M379.839 115.438H290.625V112.29h89.214V115.438z" fill="rgb(149,204,248)"/><path d="M351.501 123.835H290.625V120.686H351.501V123.835z" fill="rgb(149,204,248)"/><path d="M408.178 258.189H244.442V213.056H408.178V258.189z" fill="rgb(255,255,255)"/><path d="M281.178 235.623C281.178 243.158 275.069 249.267 267.534 249.267 259.998 249.267 253.89 243.158 253.89 235.623 253.89 228.087 259.998 221.979 267.534 221.979 275.069 221.979 281.178 228.087 281.178 235.623z" fill="rgb(245,114,159)"/><path d="M379.839 232.999H290.624V229.85H379.839V232.999z" fill="rgb(149,204,248)"/><path d="M351.499 241.394H290.624V238.246h60.875V241.394z" fill="rgb(149,204,248)"/><path d="M408.178 316.968H244.442V271.837H408.178V316.968z" fill="rgb(255,255,255)"/><path d="M281.178 294.403C281.178 301.939 275.069 308.046 267.534 308.046 259.998 308.046 253.89 301.939 253.89 294.403 253.89 286.867 259.998 280.758 267.534 280.758 275.069 280.758 281.178 286.867 281.178 294.403z" fill="rgb(126,147,238)"/><path d="M379.839 291.778H290.624V288.631H379.839V291.778z" fill="rgb(149,204,248)"/><path d="M351.499 300.175H290.624V297.025h60.875V300.175z" fill="rgb(149,204,248)"/><path d="M408.178 375.748H244.442V330.615H408.178V375.748z" fill="rgb(255,255,255)"/><path d="M281.178 353.183C281.178 360.718 275.069 366.827 267.534 366.827 259.998 366.827 253.89 360.718 253.89 353.183 253.89 345.646 259.998 339.538 267.534 339.538 275.069 339.538 281.178 345.646 281.178 353.183z" fill="rgb(43,153,241)"/><path d="M379.839 350.559H290.624V347.409H379.839V350.559z" fill="rgb(149,204,248)"/><path d="M351.499 358.956H290.624V355.806h60.875V358.956z" fill="rgb(149,204,248)"/><path d="M408.178 434.527H244.442V389.395H408.178V434.527z" fill="rgb(255,255,255)"/><path d="M281.178 411.962C281.178 419.498 275.069 425.606 267.534 425.606 259.998 425.606 253.89 419.498 253.89 411.962 253.89 404.427 259.998 398.317 267.534 398.317 275.069 398.317 281.178 404.427 281.178 411.962z" fill="rgb(61,199,201)"/><path d="M379.839 409.338H290.624V406.19H379.839V409.338z" fill="rgb(149,204,248)"/><path d="M351.499 417.734H290.624V414.585h60.875V417.734z" fill="rgb(149,204,248)"/><path d="M680.47 449.301C683.414 444.778 679.755 440.933 665.78 438.887 650.528 436.655 635.956 438.175 623.969 440.939 652.244 427.241 685.207 408.002 655.11 405.776 645.726 405.081 631.295 409.625 615.244 416.724 633.149 402.152 642.997 390.175 632.152 387.949 622.081 385.881 601.543 397.733 579.685 413.465 592.14 400.28 599.351 388.777 593.757 383.35 589.191 378.918 579.45 384.002 568.246 393.424 568.744 385.139 565.267 380.139 557.322 381.143 549.852 382.087 543.799 391.675 539.478 403.176 532.31 385.338 513.382 374.428 494.284 379.845 471.853 386.204 489.875 428.971 499.911 449.301H680.47z" fill="rgb(43,153,241)"/><path d="M534.582 321.928C534.513 321.975 493.423 351.495 460.646 434.503L461.64 434.895C477.987 393.494 496.396 365.457 510.708 347.776 517.866 338.935 523.997 332.684 528.336 328.646 530.507 326.627 532.227 325.16 533.405 324.202 533.992 323.722 534.445 323.368 534.748 323.136 535.053 322.903 535.204 322.795 535.204 322.794L534.583 321.928H534.582z" fill="rgb(43,153,241)"/><path d="M494.012 332.869C493.991 332.903 464.56 373.974 455.991 424.825L457.045 425.003C461.3 399.726 470.761 376.837 479.159 360.273 483.359 351.993 487.291 345.292 490.173 340.664 491.614 338.351 492.792 336.555 493.61 335.338 494.018 334.731 494.336 334.268 494.552 333.957 494.768 333.646 494.879 333.49 494.879 333.49L494.013 332.869H494.012z" fill="rgb(43,153,241)"/><path d="M518.3 373.083C518.252 373.099 509.373 375.947 499.48 384.641 489.588 393.332 478.693 407.885 474.672 431.227L475.724 431.408C479.708 408.316 490.446 394.007 500.184 385.442 505.054 381.162 509.676 378.322 513.075 376.555 514.775 375.67 516.168 375.055 517.133 374.661 517.616 374.464 517.992 374.323 518.246 374.232 518.373 374.185 518.469 374.152 518.533 374.131L518.625 374.1 518.301 373.083H518.3z" fill="rgb(43,153,241)"/><path d="M540.212 316.039C546.755 321.539 550.251 328.149 548.023 330.8 545.794 333.451 538.682 331.138 532.139 325.637 525.597 320.136 522.1 313.527 524.328 310.877 526.559 308.226 533.669 310.537 540.212 316.039z" fill="rgb(43,153,241)"/><path d="M537.458 319.315C539.535 321.062 540.645 323.16 539.937 324.003 539.229 324.842 536.972 324.109 534.894 322.361 532.819 320.616 531.708 318.518 532.413 317.677 533.124 316.834 535.381 317.567 537.458 319.315z" fill="rgb(12,17,83)"/><path d="M496.66 330.546C499.385 332.835 500.839 335.588 499.913 336.692 498.984 337.794 496.024 336.833 493.3 334.541 490.575 332.249 489.12 329.499 490.047 328.395 490.976 327.293 493.936 328.254 496.66 330.546z" fill="rgb(43,153,241)"/><path d="M495.514 331.909C496.379 332.636 496.841 333.511 496.546 333.861 496.252 334.211 495.311 333.908 494.446 333.179 493.58 332.451 493.119 331.578 493.414 331.227 493.709 330.877 494.649 331.182 495.514 331.909z" fill="rgb(12,17,83)"/><path d="M521.227 371.671C523.846 375.436 524.729 379.353 523.204 380.413 521.679 381.474 518.317 379.282 515.698 375.513 513.079 371.747 512.191 367.831 513.72 366.769 515.245 365.707 518.606 367.903 521.227 371.671z" fill="rgb(43,153,241)"/><path d="M519.339 372.981C520.172 374.178 520.453 375.422 519.968 375.757 519.483 376.094 518.417 375.398 517.583 374.202 516.752 373.006 516.47 371.763 516.955 371.427 517.441 371.088 518.508 371.785 519.339 372.981z" fill="rgb(12,17,83)"/><path d="M492.53 420.173C493.489 420.027 494.153 419.128 494.008 418.166 493.861 417.202 492.961 416.54 492 416.685 491.039 416.832 490.376 417.733 490.52 418.694 490.667 419.656 491.564 420.319 492.53 420.173zM488.516 418.961C488.636 418.863 488.757 418.775 488.88 418.689L488.689 418.621C487.013 417.963 485.931 416.721 486.275 415.844 486.619 414.971 488.256 414.792 489.93 415.447 490.076 415.503 490.213 415.566 490.346 415.629L490.311 415.429C490.041 413.649 490.577 412.092 491.506 411.952 492.436 411.81 493.41 413.138 493.679 414.919 493.702 415.073 493.717 415.221 493.73 415.37L493.886 415.238C495.291 414.115 496.908 413.799 497.498 414.535 498.082 415.269 497.42 416.779 496.012 417.901 495.892 417.997 495.77 418.084 495.647 418.171L495.838 418.238C497.513 418.894 498.594 420.137 498.252 421.013 497.909 421.89 496.272 422.068 494.599 421.412 494.451 421.355 494.315 421.294 494.181 421.228L494.216 421.43C494.487 423.211 493.948 424.767 493.02 424.908 492.088 425.049 491.116 423.72 490.846 421.94 490.823 421.787 490.809 421.637 490.799 421.488L490.64 421.622C489.234 422.744 487.619 423.061 487.031 422.326 486.443 421.589 487.109 420.082 488.516 418.961z" fill="rgb(255,255,255)"/><path d="M405.403 399.372C405.352 399.099 405.514 398.843 405.763 398.796 406.012 398.752 406.254 398.933 406.304 399.205 406.353 399.476 406.192 399.733 405.944 399.779 405.696 399.825 405.453 399.643 405.403 399.372zM411.137 398.653C409.63 397.946 407.743 397.996 406.708 398.128 407.477 397.902 408.793 397.256 408.788 395.701 408.784 393.903 406.399 395.273 405.734 397.331 405.308 396.083 404.805 394.821 404.46 394.242 403.483 392.618 401.944 393.916 402.271 395.38 402.458 396.227 402.403 397.372 404.712 398.509 403.806 398.509 402.89 398.656 402.101 399.049 398.302 400.933 398.154 401.977 399.667 402.374 400.746 402.657 403.922 401.952 405.072 400.189 404.866 401.642 404.617 404.116 405.404 405.039 406.567 406.403 407.834 406.284 407.812 403.411 407.792 400.652 407.403 400.278 407.373 400.251 407.393 400.271 408.713 401.346 410.052 401.335 412.782 401.312 412.866 399.463 411.137 398.653z" fill="rgb(255,255,255)"/><path d="M440.424 425.96C440.424 425.96 439.223 425.862 438.456 426.406 436.903 427.505 437.59 428.595 438.902 428.373 440.212 428.149 441.411 427.159 441.846 426.721 442.282 426.282 440.429 427.711 441.42 429.127 442.408 430.545 443.596 426.714 441.405 425.628 439.216 424.543 443.273 427.699 444.478 428.24 445.683 428.783 446.046 427.428 445.277 426.721 444.702 426.191 444.163 425.208 440.685 426.41 437.203 427.613 442.491 427.142 443.916 424.553 445.34 421.964 445.012 421.308 443.987 421.682 442.963 422.055 440.351 425.182 442.735 426.649 445.118 428.115 442.503 426.581 441.979 425.518 441.617 424.781 440.616 422.693 439.643 422.438 438.435 422.12 437.757 422.691 438.912 424.327 440.067 425.962 440.424 425.96 440.424 425.96z" fill="rgb(255,255,255)"/><path d="M441.921 426.152C441.796 426.277 441.585 426.27 441.449 426.133 441.312 425.999 441.301 425.788 441.426 425.664 441.55 425.538 441.761 425.546 441.897 425.682 442.033 425.818 442.044 426.028 441.921 426.152z" fill="rgb(255,255,255)"/><path d="M375.53 348.966C375.53 345.64 372.836 342.947 369.512 342.947H267.743L259.08 356.995H141.744C138.42 356.995 135.723 359.688 135.723 363.014L147.762 448.3C147.762 451.623 150.459 454.321 153.786 454.321H354.462C357.785 454.321 360.477 451.623 360.477 448.3L375.53 348.966z" fill="rgb(238,143,1)"/><path d="M375.53 352.847C375.53 349.523 372.836 346.829 369.512 346.829H267.743L259.08 360.873H141.744C138.42 360.873 135.723 363.57 135.723 366.893L147.762 452.181C147.762 455.506 150.459 458.202 153.786 458.202H354.462C357.785 458.202 360.477 455.506 360.477 452.181L375.53 352.847z" fill="rgb(255,201,16)"/></g><g><path d="M198.677 286.018C201.96 292.749 210.192 295.494 217.065 292.139 223.941 288.794 226.857 280.619 223.575 273.891 220.294 267.16 212.063 264.417 205.186 267.767 198.316 271.115 195.402 279.288 198.677 286.018z" fill="rgb(25,72,102)"/><path d="M191.726 303.314C195.868 311.81 206.263 315.274 214.939 311.042 223.622 306.812 227.304 296.496 223.16 287.994 219.018 279.493 208.625 276.032 199.944 280.265 191.264 284.491 187.586 294.81 191.726 303.314z" fill="rgb(25,72,102)"/><path d="M206.287 322.093C206.287 322.093 206.797 324.36 195.863 327.139 184.932 329.913 168.197 331.28 168.197 331.28L192.819 322.523C192.819 322.523 202.391 319.62 206.287 322.093z" fill="rgb(226,197,156)"/><path d="M177.002 329.902C171.848 331.382 170.372 334.6 168.559 335.988 166.744 337.377 165.04 339.19 165.051 339.162 165.564 336.628 167.211 336.089 167.842 335.135 168.471 334.182 168.358 334.604 166.48 334.991 165.419 335.214 164.108 337.579 163.08 338.978 162.186 340.188 161.488 340.466 161.488 340.466 161.488 340.466 162.291 338.225 163.565 336.233 165.105 333.838 167.207 331.6 167.742 331.186 168.72 330.444 172.135 329.336 174.684 328.95 177.561 328.529 180.718 328.837 177.002 329.902z" fill="rgb(226,197,156)"/><path d="M168.047 331.208C168.047 331.208 164.386 333.345 163.843 334.064 163.466 334.564 162.057 337.264 162.057 337.264 162.057 337.264 163.463 336.601 164.086 335.553 164.71 334.512 168.047 331.208 168.047 331.208z" fill="rgb(226,197,156)"/><path d="M200.182 318.763C200.182 318.763 210.335 316.502 211.366 322.612 211.95 326.084 210.009 327.913 206.929 328.539 201.198 329.714 194.615 330.739 194.615 330.739L189.117 322.365 200.182 318.763z" fill="rgb(176,191,222)"/><path d="M199.609 313.718 202.436 285.954C202.436 285.954 202.235 278.693 204.852 278.844 208.624 279.057 209.344 285.327 209.674 287.578 210.341 292.163 211.307 293.971 211.231 305.517 211.188 312.638 211.693 320.678 211.246 325.483 210.936 328.794 207.713 325.116 204.352 324.804 198.087 324.213 199.609 313.718 199.609 313.718z" fill="rgb(176,191,222)"/><path d="M138.684 391.481 129.411 411.593 116.553 411.875 110.054 410.557 124.04 407.234 131.526 388.566 138.684 391.481z" fill="rgb(233,214,184)"/><path d="M127.993 414.765 126.285 414.366 125.331 412.285 114.956 412.74 106.605 411.19C106.605 411.19 106.768 410.557 107.163 410.346 108.64 409.552 115.124 409.168 115.124 409.168 115.124 409.168 114.444 410.968 115.183 411.346 115.917 411.726 123.923 411.232 125.847 410.962 129.151 410.491 130.86 409.661 130.713 410.1 130.5 410.742 127.993 414.765 127.993 414.765z" fill="rgb(22,23,17)"/><path d="M190.03 350.603 159.716 349.793 137.126 399.235 127.774 395.538 149.809 336.047C149.809 336.047 151.556 332.285 160.712 332.285 169.621 332.285 205.587 331.304 209.674 332.441 219.366 335.139 188.365 342.386 190.03 350.603z" fill="rgb(31,108,209)"/><path d="M211.595 268.405C214.876 275.138 223.108 277.881 229.981 274.533 236.855 271.181 239.77 263.009 236.492 256.277 233.21 249.545 224.978 246.807 218.106 250.154 211.229 253.504 208.317 261.677 211.595 268.405z" fill="rgb(25,72,102)"/><path d="M197.457 264.047C199.976 269.219 206.209 271.367 211.381 268.853L211.555 263.262C216.722 260.743 218.868 254.507 216.35 249.342L214.64 245.831C212.123 240.662 205.891 238.509 200.72 241.029L198.379 242.166C193.21 244.688 191.061 250.92 193.58 256.094L197.457 264.047z" fill="rgb(25,72,102)"/><path d="M194.49 248.463C194.919 249.317 195.424 250.166 196 250.991 199.876 256.541 205.753 259.323 210.02 257.938 211.471 260.605 213.213 262.784 214.878 264.546 216.78 266.551 220.775 267.706 220.775 267.706 223.498 271.573 221.956 282.708 212.225 283.854 206.372 284.541 207.571 278.378 209.614 274.533 210.57 272.726 211.489 270.653 211.279 269.633 210.543 266.086 209.244 265.601 207.163 264.39 203.648 262.851 200.429 264.464 200.429 264.464 200.117 264.616 199.771 264.62 199.47 264.502 198.976 263.975 198.556 263.374 198.222 262.691L194.464 254.971C193.42 252.833 193.513 250.442 194.49 248.463z" fill="rgb(233,214,184)"/><path d="M225.028 340.81C225.028 340.81 220.58 341.724 219.349 342.187 217.701 342.807 212.874 342.025 212.874 342.025 212.874 342.025 212.259 318.205 211.094 309.893 209.932 301.575 207.772 299.323 207.788 296.722 207.815 292.569 208.158 291.599 208.888 288.373 209.624 285.146 207.476 280.86 208.205 281.68 209.381 283.003 213.784 285.056 217.893 280.505 218.601 279.721 225.028 340.81 225.028 340.81z" fill="rgb(22,63,89)"/><path d="M209.26 272.024C209.26 272.024 203.214 278.112 203.457 280.115 203.698 282.121 203.085 290.528 204.47 299.479 205.86 308.429 206.975 310.65 207.203 317.181 207.431 323.719 205.918 325.176 206.467 333.201 206.899 339.484 207.885 345.028 207.885 345.028 207.885 345.028 210.737 345.829 212.891 343.494 215.044 341.159 214.265 319.307 213.473 313.926 212.679 308.55 209.518 294.433 209.708 290.687 209.9 286.941 211.11 277.99 211.771 276.812 213.426 273.872 209.739 272.33 209.26 272.024z" fill="rgb(209,219,234)"/><path d="M209.236 271.46C209.236 271.46 209.564 271.981 209.982 272.271 210.771 272.815 211.758 273.883 211.758 273.883 211.758 273.883 210.549 273.304 210.087 274.347 209.518 275.63 209.172 278.524 209.172 278.524 209.172 278.524 206.936 274.834 207.467 273.661 208.43 271.539 209.236 271.46 209.236 271.46z" fill="rgb(176,191,222)"/><path d="M217.524 285.965C219.844 293.435 227.91 297.57 235.537 295.2 243.163 292.827 247.466 284.851 245.147 277.386 242.826 269.916 234.76 265.782 227.135 268.153 219.505 270.525 215.202 278.5 217.524 285.965z" fill="rgb(25,72,102)"/><path d="M168.592 395.867 168.138 409.949 165.268 413.33 157.622 417.738 151.952 416.709 161.948 409.264 162.678 394.485 168.592 395.867z" fill="rgb(233,214,184)"/><path d="M167.698 413.039 165.131 414.873 164.341 414.247 155.827 418.918C155.827 418.918 151.334 421.182 150.086 419.714 149.685 419.243 150.189 417.699 151.626 416.631 152.766 415.789 153.465 415.458 153.465 415.458 153.465 415.458 153.759 416.559 156.311 416.979 157.127 417.118 162.181 413.772 163.919 412.906 167.037 411.346 168.28 409.164 168.435 409.366 168.843 409.907 167.698 413.039 167.698 413.039z" fill="rgb(22,23,17)"/><path d="M228.598 321.615 224.939 330.259 218.655 331.026 167.92 334.26C167.92 334.26 163.381 332.857 160.493 340.026 156.376 350.236 161.756 401.343 161.756 401.343L169.267 401.227 173.322 353.042C173.322 353.042 222.085 361.576 236.131 357.26 241.521 355.608 245.635 346.088 244.866 336.474 244.265 328.941 239.236 322.011 239.236 322.011L228.598 321.615z" fill="rgb(44,126,234)"/><path d="M221.696 339.761C221.696 339.761 219.344 318.495 218.006 308.429 216.669 298.358 216.965 281.468 216.659 279.05 216.35 276.629 215.082 273.142 215.082 273.142 215.082 273.142 217.531 267.648 220.735 267.828 223.55 267.984 232.43 270.965 236.734 272.71 239.705 273.919 238.149 307.823 238.415 309.611 239.375 316.045 242.538 323.424 244.59 328.523 246.218 332.573 247.479 338.625 247.479 338.625 247.479 338.625 231.237 336.709 221.696 339.761z" fill="rgb(209,219,234)"/><path d="M220.131 266.161 217.745 268.853C217.745 268.853 214.409 273.463 215.495 272.812 216.866 271.993 218.446 276.803 218.446 276.803L222.88 267.701 220.131 266.161z" fill="rgb(176,191,222)"/><path d="M239.583 317.839C239.583 317.839 243.294 320.475 229.27 321.912 215.245 323.359 194.327 322.319 194.327 322.319L226.401 316.244C226.401 316.244 235.247 314.451 239.583 317.839z" fill="rgb(233,214,184)"/><path d="M205.459 322.125C198.809 322.997 196.371 326.398 193.868 327.68 191.362 328.963 188.915 330.745 188.925 330.721 190.048 327.945 192.188 327.584 193.148 326.609 194.105 325.631 193.884 326.088 191.496 326.236 190.137 326.32 188.069 328.789 186.529 330.202 185.197 331.428 184.281 331.635 184.281 331.635 184.281 331.635 185.701 329.234 187.658 327.192 190.018 324.727 193.043 322.523 193.781 322.141 195.132 321.45 199.558 320.728 202.778 320.698 206.413 320.661 210.249 321.498 205.459 322.125z" fill="rgb(233,214,184)"/><path d="M194.152 322.217C194.152 322.217 189.227 324.057 188.415 324.788 187.854 325.29 185.597 328.113 185.597 328.113 185.597 328.113 187.458 327.584 188.43 326.501 189.402 325.423 194.152 322.217 194.152 322.217z" fill="rgb(233,214,184)"/><path d="M231.285 313.866 226.722 282.973C226.722 282.973 227.854 276.61 229.829 274.432 232.171 271.85 236.633 272.614 236.633 272.614 236.633 272.614 241.853 276.896 242.227 301.351 242.483 318.092 244.016 324.971 236.805 325.7 230.072 326.381 222.391 326.796 222.391 326.796L217.283 316.694 231.285 313.866z" fill="rgb(176,191,222)"/><path d="M193.217 331.486H148.952V330.576H193.217V331.486z" fill="rgb(205,213,215)"/><path d="M173.681 330.523C173.678 331.226 173.178 331.797 172.561 331.797H149.861C149.243 331.797 148.404 331.346 147.651 329.558L136.429 309.067C136.429 308.177 137.123 307.642 137.738 307.783L161.028 308.483C161.648 308.629 162.151 309.105 162.501 310.037L173.681 330.523z" fill="rgb(205,213,215)"/><path d="M170.934 331.486H171.162 193.325C192.531 331.906 191.204 332.182 189.702 332.182H171.162 170.934 152.399C150.892 332.182 149.567 331.906 148.772 331.486H170.934z" fill="rgb(183,190,192)"/></g><g><path d="M655.153 377.69C657.22 377.975 659.556 376.273 660.057 375.799 660.569 375.328 654.31 374.053 651.938 373.969 649.546 373.888 647.649 374.218 647.672 374.688 647.697 375.158 653.075 377.393 655.153 377.69z" fill="rgb(168,209,229)"/><path d="M573.495 435.819C573.383 435.663 572.75 436.109 572.978 436.392 573.123 436.566 573.757 436.109 573.495 435.819z" fill="rgb(212,255,254)"/><path d="M618.138 374.694C618.138 374.694 658.685 374.779 674.334 375.015 685.16 375.177 686.153 359.742 681.876 357.416 668.91 350.357 628.451 346.731 628.451 346.731L600.933 372.003C600.933 372.003 602.478 371.963 618.138 374.694z" fill="rgb(44,126,234)"/><path d="M656.369 291.957C656.369 291.957 666.791 289.04 671.328 302.652 678.29 323.545 677.678 342.699 676.705 346.785 676.258 348.667 674.922 355.156 663.275 355.408 658.554 355.508 660.444 345.386 660.444 345.386 660.444 345.386 657.41 336.792 654.185 322.246 650.959 307.708 656.369 291.957 656.369 291.957z" fill="rgb(232,80,46)"/><path d="M664.615 293.13 637.878 284.486 617.642 283.124 595.473 289.834C595.473 289.834 588.216 294.837 594.952 310.913 601.691 326.981 599.098 352.165 599.098 352.165L656.299 353.998C656.299 353.998 657.38 330.72 661.168 307.433 662.013 302.234 662.119 296.119 664.615 293.13z" fill="rgb(255,100,64)"/><path d="M625.374 352.877H628.288C631.339 330.393 631.195 307.198 627.841 284.801 626.961 285.326 626.082 285.849 625.201 286.373 625.937 309.28 624.68 332.188 625.374 352.877z" fill="rgb(232,80,46)"/><path d="M636.737 290.783C636.344 293.878 633.818 296.556 631.166 296.682 628.646 296.682 626.129 296.682 623.608 296.682 620.951 296.556 618.428 293.878 618.031 290.783 617.417 285.685 616.799 280.589 616.178 275.488 615.762 272.436 617.579 266.297 621.602 264.486 625.281 262.871 629.495 262.871 633.172 264.486 637.19 266.297 639.01 272.436 638.598 275.488 637.977 280.589 637.358 285.685 636.737 290.783z" fill="rgb(226,197,156)"/><path d="M627.085 297.065 622.286 304.935 613.496 293.935 614.874 288.154 617.728 285.812 617.768 290.167 627.085 297.065z" fill="rgb(232,80,46)"/><path d="M627.668 297.065 632.467 304.935 640.647 294.691 639.304 288.415 637.253 285.767 636.421 290.907 627.668 297.065z" fill="rgb(232,80,46)"/><path d="M626.242 254.783C624.123 254.783 622.261 255.869 621.184 257.517H619.108C616.521 257.517 614.423 259.612 614.423 262.203V273.775H617.722V269.071C617.722 267.251 619.2 265.773 621.016 265.773H622.943 619.893 621.907C625.249 265.773 627.953 263.068 627.953 259.729V254.783H626.242z" fill="rgb(22,63,89)"/><path d="M620.401 278.087C620.401 279.673 619.116 280.955 617.532 280.955H617.292C615.709 280.955 614.423 279.673 614.423 278.087V274.604C614.423 273.021 615.709 271.735 617.292 271.735H617.532C618.703 271.735 619.711 272.442 620.157 273.445" fill="rgb(226,197,156)"/><path d="M623.676 259.382V254.783H625.572 630.579 633.601C636.942 254.783 639.649 257.491 639.649 260.829V265.426H637.746 632.745 629.718C626.382 265.426 623.676 262.715 623.676 259.382z" fill="rgb(22,63,89)"/><path d="M638.799 282.486C638.788 284.888 636.951 288.961 633.907 290.247 629.768 291.957 624.87 291.954 620.733 290.246 617.684 288.961 615.855 284.893 615.841 282.486 615.841 275.66 615.841 268.834 615.841 262.012 615.824 259.594 618.238 257.558 621.217 257.501 625.285 257.501 629.354 257.501 633.422 257.501 636.4 257.557 638.817 259.591 638.799 262.012 638.799 268.834 638.799 275.66 638.799 282.486z" fill="rgb(233,214,184)"/><path d="M629.67 254.783C631.785 254.783 633.65 255.869 634.725 257.517H636.803C639.389 257.517 641.489 259.612 641.489 262.203V273.775H638.194V269.071C638.194 267.251 636.712 265.773 634.894 265.773H634.857 636.02 630.681C627.34 265.773 624.638 263.068 624.638 259.729V254.783H629.67z" fill="rgb(22,63,89)"/><path d="M635.557 274.601C635.557 273.019 636.843 271.735 638.427 271.735H638.662C640.251 271.735 641.533 273.019 641.533 274.601V278.087C641.533 279.67 640.251 280.955 638.662 280.955H638.427C637.253 280.955 636.245 280.253 635.798 279.246" fill="rgb(233,214,184)"/><path d="M624.633 260.57C624.709 260.182 624.751 259.786 624.751 259.382V254.783H622.852 620.474C617.127 254.783 614.423 257.491 614.423 260.829V265.426H615.683 616.326 618.708C619.134 265.426 619.545 265.38 619.951 265.297 620.42 262.93 622.271 261.058 624.633 260.57z" fill="rgb(22,63,89)"/><path d="M571.549 452.218C570.924 452.971 571.38 454.963 571.38 454.963 571.38 454.963 582.294 456.18 585.806 455.352 586.72 455.141 588.26 454.352 589.712 453.521 589.957 453.383 590.389 452.543 590.629 452.403 591.068 452.141 591.297 452.578 591.674 452.341 592.646 451.728 593.33 451.251 593.342 451.191 594.297 446.186 593.023 444.167 593.023 444.167 593.023 444.167 583.727 441.078 581.985 443.232 577.889 448.304 572.913 450.558 571.549 452.218z" fill="rgb(22,23,17)"/><path d="M673.554 446.771 674.31 455.016 682.566 455.821C682.566 455.821 683.136 454.726 683.831 454.789 684.424 454.846 685.069 456.07 685.871 456.146 687.607 456.316 689.53 456.505 690.303 456.581 691.85 456.735 706.867 458.202 706.867 458.202 706.867 458.202 707.407 456.535 707.007 455.908 706.804 455.584 705.474 454.921 704.581 454.573 700.432 452.958 688.596 448.023 686.87 443.742 684.776 438.535 673.554 446.771 673.554 446.771z" fill="rgb(22,23,17)"/><path d="M661.071 342.395 633.164 353.794C633.164 353.794 652.961 356.619 665.336 354.094 673.707 352.389 661.453 342.031 661.071 342.395z" fill="rgb(233,214,184)"/><path d="M597.725 359.761C597.725 359.761 595.038 385.242 595.422 398.717 595.709 408.876 595.742 428.353 593.321 444.955 593.171 445.97 580.19 445.203 580.19 445.203 580.19 445.203 575.53 382.026 574.151 371.623 572.765 361.215 576.79 353.706 597.725 359.761z" fill="rgb(44,126,234)"/><path d="M679.37 365.903C679.37 365.903 675.187 372.506 663.711 374.071 659.562 374.637 670.398 448.025 670.398 448.025L687.349 442.599 684.073 361.438 679.37 365.903z" fill="rgb(31,108,209)"/><path d="M632.601 374.071C632.601 374.071 610.439 377.237 595.646 378.785 590.222 379.353 585.526 364.169 584.897 363.512 580.938 359.362 577.03 359.889 577.166 359.742 580.372 356.274 596.965 353.059 614.31 348.993 631.653 344.926 634.299 347.486 634.299 347.486L632.601 374.071z" fill="rgb(31,108,209)"/><path d="M614.31 348.993C596.965 353.059 580.372 356.274 577.166 359.742 577.03 359.889 580.938 359.362 584.897 363.512 585.067 363.694 586.067 368.558 586.782 370.299 583.955 365.211 624.712 350.841 633.523 347.121 631.879 346.595 627.085 345.998 614.31 348.993z" fill="rgb(44,126,234)"/><path d="M595.268 373.885 593.57 423.474 591.873 434.975 591.685 423.474 592.06 416.307 588.103 405.182 586.027 379.349 589.047 380.479 588.667 369.169 595.268 373.885z" fill="rgb(31,108,209)"/><path d="M678.794 359.742 682.945 360.874 684.454 420.458 675.78 441.763 679.929 427.243 678.23 397.266C678.23 397.266 672.197 411.781 672.197 411.029 672.197 410.272 677.288 379.54 677.288 379.54 677.288 379.54 671.634 384.256 672.197 384.065 672.763 383.875 675.591 362.57 678.794 359.742z" fill="rgb(44,126,234)"/><path d="M607.723 290.078C607.723 290.078 598.814 283.098 590.097 296.053 577.324 315.036 571.781 335.232 569.748 341.077 568.194 345.558 569.052 358.226 574.275 363.448 575.53 364.706 583.073 363.7 583.073 363.7L588.024 360.273 585.952 356.293 585.841 353.142C585.841 353.142 592.172 337.871 599.947 323.433 607.723 308.998 607.723 290.078 607.723 290.078z" fill="rgb(255,100,64)"/><path d="M585.946 348.119 614.869 349.63C614.869 349.63 587.009 362.41 586.088 360.208 580.869 347.727 585.946 348.119 585.946 348.119z" fill="rgb(233,214,184)"/><path d="M601.856 347.231C603.546 346.421 603.398 346.405 603.398 346.405 603.398 346.405 604.942 348.242 607.178 348.583 608.289 348.754 611.878 348.8 611.878 348.8L617.204 348.932 619.676 348.791C619.676 348.791 621.07 348.609 621.442 348.845 622.515 349.536 621.596 350.091 621.596 350.091L612.048 351.445 621.224 352.578C621.224 352.578 622.375 352.92 622.428 353.546 622.48 354.128 622.095 354.112 622.095 354.112L611.437 355.248 616.11 356.363C616.11 356.363 617.228 356.724 617.313 357.329 617.406 357.993 617.451 358.166 617.451 358.166L607.653 357.207C607.653 357.207 600.168 348.045 601.856 347.231z" fill="rgb(233,214,184)"/><path d="M612.437 353.134 618.85 354.304C618.85 354.304 620.314 354.407 620.965 354.876 621.711 355.412 621.273 356.075 621.273 356.075L611.437 355.248 612.437 353.134z" fill="rgb(233,214,184)"/><path d="M652.649 358.176 652.68 358.118 652.649 356.294H595.662V358.118 358.176L595.857 358.518C596.827 360.102 598.569 360.381 600.565 360.381H647.75C649.743 360.381 651.484 360.102 652.455 358.518L652.649 358.176z" fill="rgb(182,194,201)"/><path d="M643.037 358.004H605.304V356.717H643.037V358.004z" fill="rgb(135,155,166)"/><path d="M652.613 356.491 652.769 319.132C652.772 318.145 651.976 317.349 650.991 317.349H597.652C596.664 317.349 595.865 318.145 595.86 319.132L595.707 356.491H652.613z" fill="rgb(228,238,243)"/><path d="M627.694 336.918C627.688 338.826 626.131 340.373 624.225 340.373 622.319 340.373 620.78 338.826 620.788 336.918 620.797 335.014 622.347 333.466 624.256 333.466 626.16 333.466 627.703 335.014 627.694 336.918z" fill="rgb(182,194,201)"/><path d="M582.192 362.567 580.206 349.888 583.499 346.502 590.804 347.665 589.31 361.706 582.192 362.567z" fill="rgb(232,80,46)"/><path d="M670.873 353.47 671.634 348.803 662.391 340.51 657.394 342.765 663.929 355.277 670.873 353.47z" fill="rgb(255,100,64)"/></g><g><circle vector-effect="non-scaling-stroke" cx="444.26279714427665" cy="166.09283407597817" r="14.398795302778865" fill="rgb(43,153,241)"/><path d="M444.263 151.694V180.492C452.215 180.492 458.662 174.045 458.662 166.093 458.662 158.141 452.215 151.694 444.263 151.694z" fill="rgb(26,115,232)"/><path d="M442.206 172.388 435.973 166.155 438.154 163.974 442.206 168.025 449.857 160.374 452.039 162.555 442.206 172.388z" fill="rgb(242,242,244)"/><path d="M444.263 170.332 452.039 162.555 449.857 160.374 444.263 165.968V170.332z" fill="rgb(223,223,225)"/></g><g><circle vector-effect="non-scaling-stroke" cx="444.26279714427613" cy="216.62415300124087" r="14.398795302778865" fill="rgb(43,153,241)"/><path d="M444.263 202.225V231.023C452.215 231.023 458.662 224.576 458.662 216.624 458.662 208.672 452.215 202.225 444.263 202.225z" fill="rgb(26,115,232)"/><path d="M442.206 222.92 435.973 216.686 438.154 214.505 442.206 218.556 449.857 210.905 452.039 213.087 442.206 222.92z" fill="rgb(242,242,244)"/><path d="M444.263 220.863 452.039 213.087 449.857 210.905 444.263 216.499V220.863z" fill="rgb(223,223,225)"/></g><g><circle vector-effect="non-scaling-stroke" cx="444.26279714427613" cy="264.0201875395545" r="14.398795302778865" fill="rgb(43,153,241)"/><path d="M444.263 249.621V278.419C452.215 278.419 458.662 271.972 458.662 264.02 458.662 256.068 452.215 249.621 444.263 249.621z" fill="rgb(26,115,232)"/><path d="M442.206 270.316 435.973 264.083 438.154 261.901 442.206 265.952 449.857 258.301 452.039 260.483 442.206 270.316z" fill="rgb(242,242,244)"/><path d="M444.263 268.259 452.039 260.483 449.857 258.301 444.263 263.895V268.259z" fill="rgb(223,223,225)"/></g><g><g><g><circle vector-effect="non-scaling-stroke" cx="473.24400615037496" cy="458.94080603311147" r="7.345050672559466" fill="rgb(249,186,72)"/><path d="M467.735 475.467C465.71 475.467 464.063 477.114 464.063 479.14 464.063 481.165 465.71 482.812 467.735 482.812 469.761 482.812 471.408 481.165 471.408 479.14 471.408 477.114 469.761 475.467 467.735 475.467zM467.735 480.976C466.723 480.976 465.899 480.153 465.899 479.14 465.899 478.127 466.723 477.304 467.735 477.304 468.748 477.304 469.571 478.127 469.571 479.14 469.571 480.153 468.748 480.976 467.735 480.976z" fill="rgb(51,51,51)"/><path d="M494.881 466.862C494.057 466.291 493.003 466.161 492.063 466.511L491.957 466.55 482.026 442.172 456.978 451.118 451.821 438.742H442.028C440.509 438.742 439.273 439.978 439.273 441.496 439.273 443.015 440.509 444.251 442.028 444.251H447.849L460.831 474.612C459.974 475.914 459.472 477.468 459.472 479.14 459.472 483.697 463.18 487.403 467.735 487.403 472.291 487.403 475.998 483.697 475.998 479.14 475.998 479.049 475.987 478.96 475.985 478.87L494.183 472.253C495.387 471.814 496.197 470.659 496.197 469.376 496.197 468.373 495.705 467.434 494.881 466.862zM470.098 448.382 472.936 454.77 470.052 455.924 467.165 449.43 470.098 448.382zM465.431 450.049 469.091 458.285 475.388 455.767 471.831 447.764 480.989 444.493 490.238 467.196 473.674 473.408C472.17 471.85 470.066 470.877 467.735 470.877 466.908 470.877 466.111 471.003 465.357 471.229L457.684 452.815 465.431 450.049zM442.028 442.415C441.522 442.415 441.11 442.003 441.11 441.496 441.11 440.99 441.522 440.578 442.028 440.578H450.596L463.67 471.954C463.124 472.264 462.621 472.636 462.162 473.056L449.061 442.415H442.028zM467.735 485.567C464.191 485.567 461.308 482.683 461.308 479.14 461.308 475.596 464.191 472.713 467.735 472.713 471.279 472.713 474.162 475.596 474.162 479.14 474.162 482.683 471.279 485.567 467.735 485.567zM493.556 470.527 475.712 477.015C475.515 476.275 475.218 475.577 474.835 474.933L492.708 468.231C493.09 468.086 493.499 468.138 493.835 468.37 494.169 468.603 494.361 468.97 494.361 469.376 494.361 469.89 494.037 470.351 493.556 470.527z" fill="rgb(51,51,51)"/></g></g></g><g><path d="M144.567 439.597H127.317C126.693 439.597 125.935 440.044 125.631 440.589L123.749 443.976H144.567V439.597z" fill="rgb(51,62,72)"/><path d="M144.567 443.514H123.667C118.194 443.514 113.716 447.992 113.716 453.465V479.412H144.567V443.514z" fill="rgb(255,158,22)"/><path d="M111.062 480.758C111.062 481.974 112.057 482.97 113.274 482.97H122.857C124.073 482.97 125.068 481.974 125.068 480.758V477.847C125.068 476.63 124.073 475.635 122.857 475.635H113.274C112.057 475.635 111.062 476.63 111.062 477.847V480.758z" fill="rgb(51,62,72)"/><path d="M144.567 479.412H206.975V433.487C206.975 431.055 204.985 429.065 202.553 429.065H148.99C146.557 429.065 144.567 431.055 144.567 433.487V479.412v0z" fill="rgb(0,113,206)"/><circle vector-effect="non-scaling-stroke" cx="186.60654851834616" cy="479.41235694515336" r="9.950734748334355" fill="rgb(51,62,72)"/><circle vector-effect="non-scaling-stroke" cx="186.6065485183484" cy="479.41235694515" r="4.533204888945221" fill="rgb(255,255,255)"/><circle vector-effect="non-scaling-stroke" cx="144.56794781862254" cy="479.41235694515336" r="9.950734748334355" fill="rgb(51,62,72)"/><g><circle vector-effect="non-scaling-stroke" cx="144.5658206428796" cy="479.4123569451541" r="4.533398268558244" fill="rgb(255,255,255)"/><path d="M120.573 456.874C120.573 458.091 121.568 459.086 122.784 459.086H137.159C138.375 459.086 139.37 458.091 139.37 456.874V450.701C139.37 449.485 138.375 448.49 137.159 448.49H122.784C121.568 448.49 120.573 449.485 120.573 450.701V456.874v0z" fill="rgb(255,255,255)"/><path d="M118.655 475.635H120.774C121.382 475.635 121.879 475.137 121.879 474.529V470.991C121.879 470.382 121.382 469.885 120.774 469.885H118.655v5.75z" fill="rgb(255,255,255)"/></g><path d="M113.715 469.885h5.307v5.75H113.715z" transform="matrix(1,0,0,1,0,0)" fill="rgb(75,182,170)"/><path d="M202.037 475.635H199.918C199.31 475.635 198.813 475.137 198.813 474.529V470.991C198.813 470.382 199.31 469.885 199.918 469.885H202.037v5.75z" fill="rgb(255,255,255)"/><path d="M201.668 469.885h5.307v5.75H201.668z" transform="matrix(1,0,0,1,0,0)" fill="rgb(75,182,170)"/><path d="M200.404 480.758C200.404 481.974 201.4 482.97 202.616 482.97H207.861C209.077 482.97 210.072 481.974 210.072 480.758V477.847C210.072 476.63 209.077 475.635 207.861 475.635H202.616C201.4 475.635 200.404 476.63 200.404 477.847c0 0 0 2.9110000000000014.0 2.9110000000000014z" fill="rgb(51,62,72)"/><path d="M144.567 438.836 206.975 455.971V465.708L144.567 448.573V438.836z" fill="rgb(0,85,184)"/></g></g></g></svg>