<svg xmlns="http://www.w3.org/2000/svg" xmlns:xlink="http://www.w3.org/1999/xlink" style="isolation:isolate" viewBox="0 0 800 550" width="800pt" height="550pt"><defs><clipPath id="_clipPath_9z3dSYUO8C2B7Ccj30kG27FWz64Fgz4G"><path d="M0 0h8e2v550H0z"/></clipPath></defs><g clip-path="url(#_clipPath_9z3dSYUO8C2B7Ccj30kG27FWz64Fgz4G)"><g><clipPath id="_clipPath_6lHFtlEIfdlq0xJUPCsAEqaW1z3r8Nvf"><path d="M46 15.198h726v511.26H46z" transform="matrix(1,0,0,1,0,0)" fill="rgb(255,255,255)"/></clipPath><g clip-path="url(#_clipPath_6lHFtlEIfdlq0xJUPCsAEqaW1z3r8Nvf)"><g><path d="M768.276 431.64C768.276 464.993 605.359 492.028 404.385 492.028 203.406 492.028 61.194 464.993 61.194 431.64 61.194 398.292 203.406 371.257 404.385 371.257 605.359 371.257 768.276 398.292 768.276 431.64z" fill="rgb(233,246,255)"/><path d="M71.029 280.43C71.029 280.43 72.337 276.414 70.848 272.714 70.305 271.373 68.243 269.515 66.853 270.079 65.458 270.638 65.019 272.798 65.808 274.746 67.297 278.448 71.029 280.43 71.029 280.43z" fill="rgb(255,171,1)"/><path d="M715.8 364.683C715.8 364.683 714.982 361.535 715.913 358.636 716.253 357.585 717.541 356.129 718.41 356.571 719.283 357.009 719.556 358.702 719.064 360.228 718.132 363.129 715.8 364.683 715.8 364.683z" fill="rgb(255,171,1)"/><path d="M73.068 286.771C73.068 286.771 71.263 283.546 68.027 282.377 66.853 281.955 64.459 282.239 64.009 283.498 63.553 284.753 64.675 286.313 66.381 286.927 69.616 288.098 73.068 286.771 73.068 286.771z" fill="rgb(255,171,1)"/><path d="M714.526 369.652C714.526 369.652 715.654 367.125 717.677 366.208 718.41 365.878 719.907 366.101 720.188 367.087 720.473 368.071 719.772 369.293 718.706 369.774 716.683 370.692 714.526 369.652 714.526 369.652z" fill="rgb(255,171,1)"/><path d="M76.835 293.571C76.835 293.571 73.873 291.363 70.439 291.615 69.195 291.709 67.133 292.948 67.233 294.28 67.326 295.611 68.991 296.576 70.796 296.443 74.23 296.19 76.835 293.571 76.835 293.571z" fill="rgb(255,171,1)"/><path d="M712.171 374.981C712.171 374.981 714.022 373.251 716.169 373.449 716.947 373.522 718.235 374.493 718.173 375.537 718.115 376.58 717.074 377.336 715.946 377.232 713.8 377.033 712.171 374.981 712.171 374.981z" fill="rgb(255,171,1)"/><path d="M73.231 286.905C73.231 286.905 76.396 285.596 78.23 282.685 78.89 281.63 79.287 279.334 78.365 278.755 77.441 278.172 75.847 279.041 74.878 280.575 73.044 283.488 73.231 286.905 73.231 286.905z" fill="rgb(255,171,1)"/><path d="M714.424 369.757C714.424 369.757 712.445 368.732 711.299 366.45 710.886 365.623 710.638 363.824 711.215 363.37 711.792 362.913 712.788 363.594 713.394 364.797 714.541 367.079 714.424 369.757 714.424 369.757z" fill="rgb(255,171,1)"/><path d="M76.396 293.802C76.396 293.802 79.655 292.556 81.483 289.644 82.155 288.589 82.506 286.267 81.53 285.65 80.549 285.035 78.913 285.879 77.944 287.414 76.11 290.326 76.396 293.802 76.396 293.802z" fill="rgb(255,171,1)"/><path d="M712.445 375.162C712.445 375.162 710.408 374.185 709.266 371.904 708.846 371.077 708.627 369.257 709.236 368.774 709.85 368.292 710.872 368.953 711.478 370.156 712.624 372.438 712.445 375.162 712.445 375.162z" fill="rgb(255,171,1)"/><path d="M82.418 302.357C82.418 302.357 85.326 301.67 86.727 299.446 87.236 298.642 87.318 296.749 86.342 296.134 85.361 295.518 83.924 296.043 83.183 297.214 81.787 299.439 82.418 302.357 82.418 302.357z" fill="rgb(255,171,1)"/><path d="M708.682 381.866C708.682 381.866 706.863 381.328 705.988 379.585 705.67 378.954 705.619 377.472 706.229 376.99 706.842 376.507 707.74 376.918 708.203 377.836 709.076 379.58 708.682 381.866 708.682 381.866z" fill="rgb(255,171,1)"/><path d="M82.056 302.558C82.056 302.558 79.924 300.657 77.138 300.448 76.128 300.372 74.329 301.015 74.259 301.972 74.188 302.924 75.409 303.796 76.881 303.906 79.661 304.116 82.056 302.558 82.056 302.558z" fill="rgb(255,171,1)"/><path d="M708.908 382.024C708.908 382.024 710.24 380.534 711.982 380.37 712.613 380.311 713.738 380.815 713.781 381.564 713.825 382.311 713.062 382.994 712.142 383.081 710.404 383.245 708.908 382.024 708.908 382.024z" fill="rgb(255,171,1)"/><path d="M98.66 341.355C98.023 341.965 97.45 342.159 97.41 342.172L97.194 341.506 97.304 341.836 97.194 341.506C97.258 341.485 98.747 340.955 99.436 338.684 100.213 336.138 99.676 332.527 97.853 327.95 95.348 321.673 90.448 313.749 83.288 304.402 74.971 293.544 72.665 286.46 71.134 281.771 70.743 280.572 70.404 279.532 70.036 278.683L70.679 278.407C71.058 279.286 71.403 280.337 71.8 281.555 73.313 286.199 75.602 293.213 83.842 303.977 99.781 324.786 101.481 334.47 100.096 338.928 99.734 340.095 99.173 340.861 98.66 341.355z" fill="rgb(255,171,1)"/><path d="M698.529 412.428C698.927 412.906 699.285 413.057 699.311 413.069L699.445 412.546 699.376 412.805 699.445 412.546C699.405 412.53 698.475 412.115 698.044 410.335 697.559 408.339 697.894 405.51 699.033 401.923 700.599 397.004 703.662 390.794 708.137 383.469 713.336 374.96 714.778 369.408 715.734 365.734 715.979 364.794 716.191 363.979 716.42 363.314L716.019 363.097C715.781 363.786 715.566 364.61 715.318 365.564 714.372 369.203 712.941 374.701 707.791 383.136 697.828 399.444 696.766 407.032 697.631 410.527 697.857 411.44 698.208 412.041 698.529 412.428z" fill="rgb(255,171,1)"/><path d="M298.42 346.986C314.463 338.312 302.252 334.522 287.54 334 294.904 327.55 290.729 320.918 273.418 312.988 265.651 309.428 255.979 310.881 246.412 314.71 239.597 301.199 230.095 291.762 218.583 296.212 209.07 299.892 201.945 304.518 197.424 309.577 194.563 308.366 191.473 307.206 188.156 306.119 180.943 303.749 175.494 305.133 171.476 308.766 157.471 300.297 143.18 295.082 134.484 300.187 119.358 309.064 117.115 317.029 126.482 325.382 111.771 325.249 100.564 329.281 119.358 340.839 101.971 338.359 89.455 339.559 96.551 349.735 112.372 372.419 190.492 379.311 249.268 371.648 286.202 371.304 317.121 366.182 323.44 355.26 328.083 347.218 315.246 345.698 298.42 346.986z" fill="rgb(255,171,1)"/><path d="M573.667 416.841C563.639 410.043 571.273 407.074 580.468 406.664 575.865 401.609 578.474 396.412 589.295 390.198 594.15 387.408 600.195 388.547 606.175 391.547 610.435 380.959 616.375 373.564 623.569 377.051 629.516 379.935 633.97 383.56 636.796 387.524 638.584 386.575 640.515 385.666 642.589 384.814 647.097 382.957 650.503 384.042 653.015 386.889 661.768 380.251 670.701 376.166 676.137 380.166 685.592 387.122 686.994 393.364 681.138 399.911 690.334 399.806 697.339 402.966 685.592 412.024 696.46 410.08 704.283 411.021 699.848 418.996 689.958 436.772 641.128 442.173 604.39 436.168 581.304 435.898 561.978 431.884 558.028 423.325 555.126 417.023 563.15 415.832 573.667 416.841z" fill="rgb(255,171,1)"/><path d="M103.6 328.025C119.883 335.218 130.635 349.8 133.736 366.199 119.521 374.948 101.503 376.823 85.221 369.628 68.933 362.432 58.186 347.849 55.079 331.449 69.295 322.701 87.311 320.83 103.6 328.025z" fill="rgb(254,193,47)"/><path d="M695.441 401.982C685.263 407.619 678.543 419.046 676.604 431.898 685.489 438.754 696.751 440.223 706.93 434.585 717.111 428.946 723.828 417.518 725.77 404.665 716.885 397.81 705.623 396.344 695.441 401.982z" fill="rgb(254,193,47)"/><path d="M61.194 334.378 130.67 365.072 131.055 364.196 61.585 333.503" fill="rgb(255,255,255)"/><path d="M721.947 406.96 678.521 431.014 678.28 430.328 721.703 406.274" fill="rgb(255,255,255)"/><path d="M75.479 339.922 63.822 345.424 64.231 346.29 75.888 340.787" fill="rgb(255,255,255)"/><path d="M713.018 411.305 720.305 415.617 720.049 416.295 712.763 411.984" fill="rgb(255,255,255)"/><path d="M87.324 345.156 72.956 351.937 73.365 352.802 87.732 346.022" fill="rgb(255,255,255)"/><path d="M705.615 415.406 714.596 420.721 714.34 421.399 705.359 416.085" fill="rgb(255,255,255)"/><path d="M99.167 350.389 75.152 361.725 75.561 362.59 99.576 351.254" fill="rgb(255,255,255)"/><path d="M698.212 419.508 713.223 428.392 712.967 429.069 697.956 420.186" fill="rgb(255,255,255)"/><path d="M111.018 355.622 87.65 366.655 88.059 367.519 111.426 356.487" fill="rgb(255,255,255)"/><path d="M690.805 423.609 705.411 432.255 705.155 432.932 690.549 424.287" fill="rgb(255,255,255)"/><path d="M122.861 360.856 109.85 366.999 110.258 367.863 123.27 361.72" fill="rgb(255,255,255)"/><path d="M683.402 427.71 691.535 432.525 691.279 433.202 683.146 428.387" fill="rgb(255,255,255)"/><path d="M74.802 339.374 71.023 327.053 70.106 327.333 73.891 339.655" fill="rgb(255,255,255)"/><path d="M713.442 410.876 715.804 401.219 716.377 401.44 714.011 411.096" fill="rgb(255,255,255)"/><path d="M86.646 344.609 80.759 325.398 79.842 325.678 85.735 344.89" fill="rgb(255,255,255)"/><path d="M706.038 414.978 709.718 399.922 710.292 400.143 706.608 415.198" fill="rgb(255,255,255)"/><path d="M98.496 349.841 91.12 325.795 90.203 326.076 97.579 350.121" fill="rgb(255,255,255)"/><path d="M698.632 419.078 703.242 400.234 703.816 400.454 699.205 419.297" fill="rgb(255,255,255)"/><path d="M110.34 355.073 102.765 330.372 101.849 330.653 109.423 355.354" fill="rgb(255,255,255)"/><path d="M691.228 423.179 695.963 403.821 696.536 404.041 691.801 423.398" fill="rgb(255,255,255)"/><path d="M122.184 360.312 115.678 339.09 114.761 339.371 121.273 360.592" fill="rgb(255,255,255)"/><path d="M683.825 427.284 687.892 410.652 688.465 410.873 684.395 427.504" fill="rgb(255,255,255)"/><path d="M148.833 314.398C159.982 330.604 161.635 350.553 155.047 367.776 136.609 367.759 118.575 359.074 107.432 342.867 96.288 326.66 94.63 306.714 101.217 289.491 119.655 289.504 137.69 298.19 148.833 314.398z" fill="rgb(254,193,47)"/><path d="M667.168 391.302C660.199 404.002 659.166 419.636 663.284 433.134 674.809 433.12 686.081 426.314 693.046 413.613 700.012 400.912 701.048 385.28 696.93 371.784 685.406 371.794 674.133 378.601 667.168 391.302z" fill="rgb(254,193,47)"/><path d="M105.27 295.792 152.816 364.932 153.687 364.336 106.147 295.193" fill="rgb(255,255,255)"/><path d="M694.397 376.721 664.678 430.905 664.134 430.437 693.849 376.252" fill="rgb(255,255,255)"/><path d="M115.491 309.285 101.34 307.703 101.223 308.754 115.374 310.336" fill="rgb(255,255,255)"/><path d="M688.009 387.296 696.854 386.056 696.927 386.88 688.081 388.119" fill="rgb(255,255,255)"/><path d="M123.597 321.074 106.153 319.124 106.036 320.176 123.48 322.125" fill="rgb(255,255,255)"/><path d="M682.942 396.534 693.846 395.007 693.918 395.83 683.014 397.358" fill="rgb(255,255,255)"/><path d="M131.703 332.861 102.543 329.604 102.426 330.655 131.587 333.913" fill="rgb(255,255,255)"/><path d="M677.875 405.772 696.102 403.219 696.175 404.042 677.947 406.596" fill="rgb(255,255,255)"/><path d="M139.81 344.654 111.444 341.485 111.327 342.536 139.693 345.706" fill="rgb(255,255,255)"/><path d="M672.808 415.013 690.539 412.53 690.611 413.353 672.881 415.838" fill="rgb(255,255,255)"/><path d="M147.916 356.44 132.124 354.676 132.007 355.728 147.799 357.491" fill="rgb(255,255,255)"/><path d="M667.741 424.25 677.612 422.868 677.685 423.691 667.814 425.074" fill="rgb(255,255,255)"/><path d="M115.17 308.379 118.761 294.598 117.74 294.331 114.148 308.112" fill="rgb(255,255,255)"/><path d="M688.209 386.585 685.964 375.786 686.603 375.577 688.848 386.376" fill="rgb(255,255,255)"/><path d="M123.276 320.169 128.871 298.683 127.849 298.416 122.254 319.903" fill="rgb(255,255,255)"/><path d="M683.143 395.825 679.645 378.987 680.284 378.778 683.781 395.617" fill="rgb(255,255,255)"/><path d="M131.388 331.958 138.391 305.063 137.369 304.797 130.361 331.692" fill="rgb(255,255,255)"/><path d="M678.072 405.064 673.695 383.987 674.334 383.778 678.714 404.855" fill="rgb(255,255,255)"/><path d="M139.488 343.747 146.69 316.121 145.662 315.855 138.467 343.48" fill="rgb(255,255,255)"/><path d="M673.009 414.302 668.507 392.653 669.15 392.445 673.648 414.094" fill="rgb(255,255,255)"/><path d="M147.601 355.535 153.78 331.806 152.752 331.539 146.579 355.272" fill="rgb(255,255,255)"/><path d="M667.938 423.54 664.076 404.944 664.718 404.735 668.577 423.335" fill="rgb(255,255,255)"/><path d="M79.498 380.502C77.377 377.243 80.011 374.475 90.075 373.003 101.054 371.397 111.549 372.489 120.181 374.481 99.821 364.616 76.087 350.764 97.754 349.163 104.511 348.661 114.907 351.932 126.465 357.041 113.57 346.552 106.473 337.928 114.288 336.326 121.542 334.836 136.329 343.369 152.069 354.7 143.098 345.205 137.906 336.922 141.936 333.014 145.224 329.823 152.232 333.485 160.303 340.267 159.942 334.303 162.447 330.701 168.17 331.424 173.549 332.104 177.906 339.008 181.019 347.29 186.176 334.445 199.807 326.59 213.555 330.491 229.709 335.07 216.732 365.86 209.508 380.502H79.498z" fill="rgb(0,99,203)"/><path d="M710.507 443.106C711.832 440.553 710.185 438.383 703.896 437.23 697.032 435.971 690.473 436.827 685.077 438.388 697.803 430.657 712.639 419.801 699.095 418.547 694.872 418.154 688.374 420.716 681.149 424.722 689.209 416.5 693.645 409.742 688.761 408.487 684.227 407.32 674.983 414.007 665.145 422.886 670.753 415.446 673.998 408.954 671.479 405.891 669.424 403.391 665.043 406.261 659.998 411.575 660.225 406.901 658.659 404.079 655.081 404.646 651.719 405.178 648.995 410.589 647.049 417.079 643.826 407.012 635.306 400.857 626.712 403.914 616.616 407.503 624.727 431.633 629.242 443.106H710.507z" fill="rgb(0,99,203)"/><path d="M151.321 291.576 151.379 291.638C152.518 292.949 171.353 315.227 179.366 365.358L179.985 365.259C171.692 313.382 151.824 291.192 151.789 291.157L151.321 291.577V291.576z" fill="rgb(0,99,203)"/><path d="M665.612 373.417 665.576 373.466C664.864 374.493 653.091 391.952 648.083 431.239L647.696 431.161C652.879 390.506 665.299 373.117 665.321 373.089L665.612 373.418V373.417z" fill="rgb(0,99,203)"/><path d="M173.146 302.847C173.146 302.847 173.181 302.938 173.257 303.12 174.378 305.845 183.402 328.601 183.402 354.729 183.402 356.557 183.355 358.403 183.261 360.254L183.892 360.289C183.986 358.42 184.027 356.563 184.027 354.729 184.027 326.707 173.73 302.622 173.719 302.6L173.146 302.847v0z" fill="rgb(0,99,203)"/><path d="M154.335 323.172 154.381 323.2C154.872 323.497 159.229 326.231 163.451 331.978 167.674 337.725 171.773 346.48 171.773 358.864 171.773 359.746 171.756 360.645 171.709 361.562L172.34 361.591C172.381 360.663 172.404 359.752 172.404 358.864 172.404 345.935 167.978 336.87 163.539 331.05 159.106 325.229 154.674 322.644 154.65 322.629L154.335 323.172z" fill="rgb(0,99,203)"/><path d="M663.729 398.179 663.7 398.2C663.393 398.433 660.669 400.575 658.03 405.079 655.391 409.583 652.829 416.444 652.829 426.149 652.829 426.84 652.839 427.545 652.869 428.264L652.474 428.287C652.449 427.559 652.434 426.845 652.434 426.149 652.434 416.017 655.201 408.913 657.976 404.353 660.746 399.79 663.517 397.765 663.532 397.753L663.729 398.179z" fill="rgb(0,99,203)"/><path d="M149.307 287.057C144.844 289.388 141.994 292.742 142.94 294.549 143.887 296.356 148.267 295.931 152.723 293.6 157.185 291.269 160.035 287.914 159.089 286.106 158.143 284.301 153.762 284.724 149.307 287.057z" fill="rgb(0,99,203)"/><path d="M666.872 369.876C669.661 371.703 671.442 374.332 670.851 375.748 670.26 377.163 667.522 376.831 664.737 375.003 661.947 373.177 660.166 370.548 660.757 369.131 661.349 367.717 664.086 368.048 666.872 369.876z" fill="rgb(0,99,203)"/><path d="M150.469 289.291C149.055 290.029 148.15 291.095 148.448 291.67 148.752 292.243 150.142 292.108 151.555 291.366 152.974 290.628 153.879 289.561 153.576 288.988 153.278 288.414 151.888 288.548 150.469 289.291z" fill="rgb(12,17,83)"/><path d="M666.146 371.627C667.029 372.205 667.595 373.041 667.409 373.491 667.219 373.94 666.35 373.835 665.467 373.253 664.58 372.674 664.014 371.839 664.203 371.39 664.389 370.94 665.259 371.045 666.146 371.627z" fill="rgb(12,17,83)"/><path d="M172.492 300.93C170.635 301.898 169.45 303.296 169.847 304.048 170.238 304.8 172.06 304.623 173.917 303.654 175.774 302.682 176.96 301.285 176.569 300.535 176.172 299.781 174.35 299.958 172.492 300.93z" fill="rgb(0,99,203)"/><path d="M172.983 301.86C172.393 302.166 172.013 302.609 172.136 302.848 172.264 303.086 172.842 303.033 173.433 302.725 174.022 302.415 174.396 301.972 174.273 301.731 174.145 301.494 173.567 301.549 172.983 301.86z" fill="rgb(12,17,83)"/><path d="M153.149 321.445C151.163 323.278 150.159 325.415 150.901 326.22 151.642 327.023 153.856 326.188 155.836 324.356 157.821 322.525 158.826 320.387 158.084 319.583 157.343 318.778 155.135 319.613 153.149 321.445z" fill="rgb(0,99,203)"/><path d="M664.47 396.826C665.711 398.261 666.339 399.936 665.875 400.568 665.412 401.197 664.028 400.542 662.791 399.107 661.549 397.671 660.922 395.996 661.385 395.366 661.849 394.735 663.229 395.389 664.47 396.826z" fill="rgb(0,99,203)"/><path d="M154.066 322.438C153.435 323.02 153.114 323.7 153.354 323.955 153.587 324.21 154.288 323.944 154.919 323.362 155.549 322.781 155.871 322.102 155.637 321.846 155.397 321.593 154.696 321.857 154.066 322.438z" fill="rgb(12,17,83)"/><path d="M663.897 397.603C664.291 398.06 664.492 398.592 664.342 398.792 664.196 398.992 663.758 398.784 663.364 398.328 662.97 397.872 662.769 397.34 662.915 397.14 663.065 396.94 663.502 397.148 663.897 397.603z" fill="rgb(12,17,83)"/><path d="M137.065 359.53C136.376 359.424 135.897 358.776 136.002 358.081 136.107 357.392 136.755 356.913 137.445 357.019 138.139 357.123 138.613 357.772 138.514 358.467 138.403 359.156 137.76 359.635 137.065 359.53zM139.956 358.654C139.869 358.584 139.781 358.525 139.693 358.461L139.827 358.408C141.037 357.936 141.813 357.041 141.568 356.411 141.322 355.78 140.143 355.652 138.934 356.124 138.829 356.166 138.73 356.212 138.636 356.259L138.659 356.113C138.852 354.828 138.467 353.713 137.801 353.607 137.129 353.508 136.429 354.46 136.236 355.745 136.218 355.856 136.206 355.961 136.201 356.072L136.09 355.979C135.073 355.167 133.911 354.939 133.485 355.471 133.065 355.996 133.543 357.083 134.553 357.894 134.641 357.964 134.729 358.023 134.817 358.087L134.683 358.134C133.473 358.607 132.697 359.501 132.942 360.131 133.187 360.762 134.367 360.89 135.576 360.418 135.681 360.382 135.78 360.336 135.873 360.289L135.85 360.435C135.652 361.72 136.043 362.835 136.709 362.935 137.381 363.04 138.081 362.082 138.274 360.797 138.291 360.692 138.303 360.581 138.309 360.475L138.42 360.569C139.436 361.381 140.599 361.609 141.024 361.077 141.445 360.546 140.967 359.465 139.956 358.654z" fill="rgb(255,255,255)"/><path d="M674.523 426.671C674.954 426.588 675.254 426.081 675.188 425.536 675.122 424.996 674.717 424.62 674.286 424.703 673.852 424.785 673.557 425.293 673.619 425.838 673.688 426.378 674.089 426.753 674.523 426.671zM672.717 425.984C672.771 425.93 672.826 425.884 672.881 425.833L672.797 425.792C672.041 425.422 671.556 424.722 671.709 424.227 671.862 423.733 672.6 423.632 673.355 424.003 673.421 424.035 673.483 424.071 673.542 424.108L673.527 423.994C673.407 422.987 673.648 422.113 674.063 422.03 674.483 421.952 674.921 422.698 675.042 423.706 675.053 423.792 675.06 423.875 675.064 423.962L675.133 423.888C675.768 423.252 676.495 423.074 676.762 423.49 677.024 423.902 676.725 424.753 676.094 425.39 676.039 425.445 675.984 425.49 675.929 425.54L676.013 425.577C676.769 425.948 677.254 426.648 677.101 427.142 676.948 427.637 676.21 427.737 675.455 427.366 675.389 427.339 675.327 427.303 675.269 427.266L675.283 427.381C675.407 428.387 675.162 429.262 674.747 429.339 674.327 429.421 673.888 428.671 673.768 427.664 673.757 427.582 673.75 427.495 673.746 427.413L673.676 427.485C673.042 428.122 672.315 428.3 672.048 427.884 671.786 427.468 672.085 426.62 672.717 425.984z" fill="rgb(255,255,255)"/><path d="M609.303 349.636C609.303 355.99 604.164 361.141 597.816 361.141H214.449C208.089 361.141 202.937 355.99 202.937 349.636V100.448C202.937 94.099 208.089 88.947 214.449 88.947H597.816C604.164 88.947 609.303 94.099 609.303 100.448V349.636z" fill="rgb(116,178,232)"/><path d="M224.938 376.146H418.175 584.477V306.723 113.076H512.752 418.175 224.938V376.146z" fill="rgb(183,190,192)"/><path d="M386.536 270.827H318.451V206.819H386.536V270.827z" fill="rgb(0,99,203)"/><path d="M224.938 378.54H418.175 584.477V309.119 115.474H512.752 418.175 224.938V378.54z" fill="rgb(244,246,248)"/><path d="M638.061 360.637C638.061 360.018 632.916 359.518 626.568 359.518H432.151L415.599 362.128H191.444C185.095 362.128 179.939 362.63 179.939 363.248L202.937 379.102C202.937 379.719 208.089 380.222 214.449 380.222H597.816C604.164 380.222 609.303 379.719 609.303 379.102L638.061 360.637z" fill="rgb(172,213,244)"/><path d="M218.467 399.004H216.37L264.996 217.527H267.093L218.467 399.004z" fill="rgb(176,191,222)"/><path d="M247.066 399.004H244.976L293.602 217.527H295.693L247.066 399.004z" fill="rgb(176,191,222)"/><path d="M263.028 228.779 263.588 226.687H292.895L292.334 228.779H263.028z" fill="rgb(176,191,222)"/><path d="M258.753 244.738 259.314 242.646H288.614L288.06 244.738H258.753z" fill="rgb(176,191,222)"/><path d="M322.056 267.436V227.348 210.209H382.929V267.436H322.056z" fill="rgb(43,131,253)"/><path d="M254.478 260.696 255.039 258.604H284.339L283.784 260.696H254.478z" fill="rgb(176,191,222)"/><path d="M250.203 276.655 250.763 274.561H280.064L279.504 276.655H250.203z" fill="rgb(176,191,222)"/><path d="M245.927 292.613 246.489 290.521H275.789L275.228 292.613H245.927z" fill="rgb(176,191,222)"/><path d="M241.647 308.57 242.213 306.479H271.514L270.953 308.57H241.647z" fill="rgb(176,191,222)"/><path d="M237.372 324.53 237.933 322.437H267.239L266.678 324.53H237.372z" fill="rgb(176,191,222)"/><path d="M233.097 340.491 233.657 338.399H262.964L262.398 340.491H233.097z" fill="rgb(176,191,222)"/><path d="M344.572 227.846C344.572 230.66 342.146 232.943 339.151 232.943 336.158 232.943 333.731 230.66 333.731 227.846 333.731 225.032 336.158 222.752 339.151 222.752 342.146 222.752 344.572 225.032 344.572 227.846z" fill="rgb(0,99,203)"/><path d="M228.821 356.446 229.382 354.355H258.683L258.122 356.446H228.821z" fill="rgb(176,191,222)"/><path d="M224.547 372.408 225.107 370.316H254.408L253.847 372.408H224.547z" fill="rgb(176,191,222)"/><path d="M220.271 388.363 220.832 386.272H250.133L249.572 388.363H220.271z" fill="rgb(176,191,222)"/><path d="M335.728 298.401C335.728 298.401 333.982 298.637 334.956 308.004 335.926 317.374 339.472 330.912 339.472 330.912L339.057 309.106C339.057 309.106 338.537 300.774 335.728 298.401z" fill="rgb(233,214,184)"/><path d="M338.075 323.608C338.414 328.075 336.528 330.132 336.025 331.948 335.529 333.763 334.7 335.607 334.711 335.599 336.376 334.478 336.318 333.034 336.825 332.273 337.334 331.512 337.065 331.718 337.293 333.299 337.427 334.2 336.096 335.891 335.383 337.094 334.758 338.131 334.753 338.757 334.753 338.757 334.753 338.757 336.131 337.5 337.2 335.939 338.484 334.061 339.512 331.779 339.658 331.245 339.927 330.268 339.792 327.277 339.372 325.164 338.899 322.783 337.83 320.388 338.075 323.608z" fill="rgb(233,214,184)"/><path d="M334.934 416.601 335.483 428.871 343.203 429.484 346.631 429.064 339.816 426.915 339.062 416.712 334.934 416.601z" fill="rgb(233,214,184)"/><path d="M359.538 239.193 370.086 251.726 380.629 264.255H359.538 338.444L348.994 251.726 359.538 239.193z" fill="rgb(0,99,203)"/><path d="M336.072 430.448 337.76 430.664 338.046 430.191 344.436 430.278 347.525 429.473C347.525 429.473 347.654 428.924 347.367 428.766 346.492 428.264 343.186 428.001 343.186 428.001 343.186 428.001 343.624 428.614 343.274 428.889 342.928 429.163 338.672 429.006 337.62 428.836 335.804 428.532 335.231 427.995 335.173 428.141 335.033 428.532 336.072 430.448 336.072 430.448z" fill="rgb(78,153,255)"/><path d="M337.287 321.736 338.326 368.161 341.492 413.721 334.531 414.265C334.531 414.265 328.024 368.366 327.253 364.394 326.483 360.423 318.242 328.573 322.085 320.442 325.928 312.314 337.287 321.736 337.287 321.736z" fill="rgb(25,72,102)"/><path d="M310.042 295.909C306.153 300.6 304.19 319.896 304.19 319.896 304.19 319.896 305.475 327.283 312.618 302.505 314.767 295.066 311 294.753 310.042 295.909z" fill="rgb(233,214,184)"/><path d="M305.838 336.555 304.214 334.771 303.332 333.009 303.087 329.826C303.087 329.826 303.25 326.421 303.77 325.16 304.289 323.897 304.178 318.852 304.366 318.23 304.553 317.613 307.729 316.859 307.729 316.859 307.729 316.859 306.334 322.084 305.954 324.203 305.58 326.321 306.089 329.53 305.972 330.367 305.767 331.795 305.224 332.915 305.224 332.915 305.224 332.915 305.137 330.653 305.183 330.057 305.23 329.463 304.54 329.724 304.54 329.724 304.54 329.724 304.33 332.847 304.622 333.678 304.903 334.506 305.452 335.152 305.452 335.152L305.838 336.555z" fill="rgb(233,214,184)"/><path d="M330.781 285.112 333.281 311.275V312.799L340.768 312.362C340.768 312.362 338.601 292.168 338.274 291.193 337.947 290.216 337.188 281.748 337.293 280.228 337.404 278.706 337.077 271.108 332.084 271.866 327.09 272.629 330.781 285.112 330.781 285.112z" fill="rgb(43,131,253)"/><path d="M314.592 285.112 312.098 311.275V312.799L304.605 312.362C307.98 297.055 308.74 294.014 308.845 291.193 308.874 290.163 309.056 281.748 308.95 280.228 308.845 278.706 308.74 274.582 313.29 271.866 317.629 269.278 314.592 285.112 314.592 285.112z" fill="rgb(43,131,253)"/><path d="M337.76 248.999 339.728 246.659 347.136 255.457 354.54 264.255H339.728 324.922L332.325 255.457 337.76 248.999z" fill="rgb(0,99,203)"/><path d="M322.663 415.193 322.558 430.933 316.04 428.655C316.04 428.655 313.29 426.658 315.666 426.915 319.142 427.294 318.434 425.828 318.54 423.007 318.651 420.187 318.108 414.755 318.108 414.755L322.663 415.193z" fill="rgb(233,214,184)"/><path d="M315.176 426.915C315.176 426.915 315.917 427.609 316.694 428.106 317.453 428.596 319.644 429.677 320.491 429.846 321.582 430.062 322.611 429.958 322.611 429.958 322.611 429.958 323.101 431.581 322.015 431.476 320.929 431.365 315.497 428.976 314.738 428.439 313.984 427.896 313.874 427.025 315.176 426.915z" fill="rgb(78,153,255)"/><path d="M321.22 322.606 322.05 365.183 322.809 410.329 317.313 410.036C317.313 410.036 311.765 364.593 311.292 360.581 310.83 356.563 304.173 329.835 308.623 322.025 313.074 314.215 321.22 322.606 321.22 322.606z" fill="rgb(25,72,102)"/><path d="M322.307 269.841C322.307 269.841 330.845 270.417 332.872 271.285 334.899 272.157 334.46 282.146 333.164 289.528 331.861 296.908 332.439 305.161 334.32 309.793 336.201 314.426 337.649 323.255 337.649 323.255L307.683 322.823C307.683 322.823 314.487 304.439 314.487 297.345 314.487 290.252 312.606 274.038 312.752 272.445 312.898 270.854 320.42 269.841 322.307 269.841z" fill="rgb(78,153,255)"/><path d="M335.144 266.966 335.173 266.924C333.304 264.682 332.241 262.162 332.241 258.469 332.241 256.904 332.37 256.338 332.434 254.009L332.422 254.004C332.446 253.783 332.474 253.567 332.474 253.343V250.529C332.474 246.384 329.117 243.026 324.97 243.026H323.089C318.948 243.026 315.585 246.384 315.585 250.529V256.072L315.561 256.079C315.567 256.254 315.579 256.427 315.585 256.601V256.905C315.526 261.33 313.319 265.234 309.937 267.691 307.555 268.836 305.907 271.267 305.907 274.086 305.907 277.648 308.529 280.588 311.952 281.097 313.365 285.098 317.231 287.974 321.799 287.974 325.741 287.974 329.175 285.827 330.945 282.661 334.711 281.126 337.357 277.488 337.357 273.244 337.357 270.875 336.528 268.7 335.144 266.966z" fill="rgb(255,61,13)"/><path d="M620.523 437.478 469.184 448.737 457.203 306.452 608.547 295.193 620.523 437.478z" fill="rgb(0,99,203)"/><path d="M476.56 440.601 465.852 313.393 601.161 303.324 611.874 430.534 476.56 440.601z" fill="rgb(43,131,253)"/><path d="M519.201 348.876C519.729 355.132 514.761 360.605 508.103 361.1 501.455 361.596 495.63 356.925 495.106 350.667 494.577 344.413 499.546 338.942 506.199 338.447 512.856 337.952 518.677 342.621 519.201 348.876z" fill="rgb(0,99,203)"/><path d="M554.588 371.623 580.382 397.737 606.166 423.845 559.28 427.334 512.394 430.823 533.496 401.226 554.588 371.623z" fill="rgb(0,99,203)"/><path d="M511.958 391.492 530.067 409.826 548.172 428.159 515.249 430.611 482.335 433.058 497.149 412.277 511.958 391.492z" fill="rgb(0,99,203)"/><path d="M623.454 233.538 609.023 220.34C609.023 220.34 608.065 221.499 608.428 222.559 609.414 225.43 612.96 231.192 615.208 233.625 618.28 236.949 621.988 239.611 621.988 239.611L623.454 233.538z" fill="rgb(233,214,184)"/><path d="M465.852 270.827H397.767V206.819H465.852V270.827z" fill="rgb(243,170,6)"/><path d="M638.207 258.94 636.385 257.39C636.385 257.39 635.485 256.695 634.732 255.537 633.978 254.379 634.411 253.253 635.38 252.328 636.356 251.402 637.086 251.298 637.086 251.298 637.086 251.298 638.657 251.993 638.458 253.397 638.254 254.799 639.673 257.897 639.136 258.12 638.598 258.343 638.207 258.94 638.207 258.94z" fill="rgb(233,214,184)"/><path d="M545.269 270.827H477.184V206.819H545.269V270.827z" fill="rgb(0,99,203)"/><path d="M637.758 251.576 635.947 249.621 634.177 247.879 633.956 248.389 635.036 249.799 635.614 252.75 636.327 252.357 637.758 251.576z" fill="rgb(233,214,184)"/><path d="M634.411 250.524 632.46 249.505 632.11 249.934 633.85 251.287 635.111 253.271 636.327 252.357 634.411 250.524z" fill="rgb(233,214,184)"/><path d="M631.742 250.817 633.342 251.529 634.475 251.859 635.252 252.896 634.528 253.929 633.722 252.783 631.771 251.484 631.742 250.817z" fill="rgb(233,214,184)"/><path d="M401.372 267.436V227.348 210.209H462.245V267.436H401.372z" fill="rgb(254,206,64)"/><path d="M631.386 252.541 634.452 253.326 634.954 254.099 634.498 254.834 633.255 253.975 631.602 253.046 631.386 252.541z" fill="rgb(233,214,184)"/><path d="M480.789 267.436V227.348 210.209H541.662V267.436H480.789z" fill="rgb(43,131,253)"/><path d="M640.041 258.902C639.048 257.893 639.27 256.395 639.27 256.395 639.27 256.395 639.72 252.649 639.171 252.03 638.616 251.412 638.271 249.811 638.271 249.811 638.271 249.811 637.804 249.214 637.606 250.732 637.477 251.719 637.664 252.608 637.664 252.608 637.664 252.608 636.647 254.65 636.729 255.314 636.881 256.681 639.34 259.081 639.34 259.081 639.34 259.081 640.169 259.03 640.041 258.902z" fill="rgb(233,214,184)"/><path d="M640.724 229.78 624.675 232.744 624.062 233.79 623.134 233.026 621.095 239.179 625.721 242.653 647.563 238.205C647.563 238.205 652.335 235.968 653.953 229.722 655.126 225.196 642.056 229.589 640.724 229.78z" fill="rgb(0,99,203)"/><path d="M624.599 240.061C624.599 240.061 624.371 235.639 624.331 233.332L624.062 233.79 623.127 233.026 622.444 235.162 621.924 238.331 623.081 239 623.454 238.104 624.599 240.061z" fill="rgb(244,218,128)"/><path d="M423.889 227.846C423.889 230.66 421.462 232.943 418.467 232.943 415.475 232.943 413.049 230.66 413.049 227.846 413.049 225.032 415.475 222.752 418.467 222.752 421.462 222.752 423.889 225.032 423.889 227.846z" fill="rgb(243,170,6)"/><path d="M648.457 225.415C648.416 227.456 649.321 229.327 650.454 229.533 651.54 229.647 652.627 229.761 653.713 229.875 654.87 229.911 656.142 228.27 656.522 226.266 657.141 222.956 657.76 219.645 658.379 216.334 658.765 214.351 658.408 210.248 656.803 208.877 655.331 207.654 653.508 207.463 651.809 208.35 649.958 209.357 648.749 213.293 648.714 215.313 648.626 218.678 648.544 222.047 648.457 225.415z" fill="rgb(226,197,156)"/><path d="M503.305 227.846C503.305 230.66 500.878 232.943 497.884 232.943 494.891 232.943 492.464 230.66 492.464 227.846 492.464 225.032 494.891 222.752 497.884 222.752 500.878 222.752 503.305 225.032 503.305 227.846z" fill="rgb(0,99,203)"/><path d="M647.692 363.706 647.727 365.545 657.936 365.329 658.07 360.388 651.908 360.312C651.908 360.312 648.655 363.425 647.692 363.706z" fill="rgb(22,23,17)"/><path d="M655.22 276.367C655.22 276.367 650.577 306.733 645.35 320.131 640.713 332.005 634.697 316.819 634.697 316.819L642.529 265.861 657.2 264.435C657.2 264.435 658.216 264.787 655.22 276.367z" fill="rgb(22,63,89)"/><path d="M645.607 267.105 644.211 286.651 646.792 288.091C646.792 288.091 648.877 317.042 649.391 318.496 652.323 326.83 659.349 321.644 660.26 318.823 661.171 316.008 662.351 295.281 661.708 280.19 661.066 265.096 661.066 265.096 661.066 265.096L645.607 267.105z" fill="rgb(25,72,102)"/><path d="M438.854 239.193 449.402 251.726 459.946 264.255H438.854 417.761L428.311 251.726 438.854 239.193z" fill="rgb(243,170,6)"/><path d="M649.847 310.711C649.847 310.711 648.778 315.897 649.152 325.65 649.391 331.835 650.343 348.205 651.739 360.371 651.827 361.118 657.901 360.423 657.901 360.423 657.901 360.423 660.768 320.768 660.932 313.094 660.984 310.787 654.595 305.145 649.847 310.711z" fill="rgb(25,72,102)"/><path d="M518.271 239.193 528.818 251.726 539.361 264.255H518.271 497.177L507.727 251.726 518.271 239.193z" fill="rgb(0,99,203)"/><path d="M647.879 226.728 657.433 224.592 662.333 230.106C662.333 230.106 665.966 234.978 666.047 245.923 666.124 256.897 662.409 277.221 662.409 277.221L640.543 270.194C640.543 270.194 641.56 231.673 647.879 226.728z" fill="rgb(56,123,255)"/><path d="M648.807 226.383 650.449 230.998 659.051 226.493 658.152 223.936 648.807 226.383z" fill="rgb(0,99,203)"/><path d="M648.369 225.231 648.568 226.263 646.634 229.072 646.687 226.767 648.369 225.231z" fill="rgb(0,99,203)"/><path d="M417.076 248.999 419.046 246.659 426.453 255.457 433.856 264.255H419.046 404.238L411.642 255.457 417.076 248.999z" fill="rgb(243,170,6)"/><path d="M637.138 316.078C637.138 316.078 638.855 316.598 644.287 316.68 649.695 316.755 638.248 360.528 638.248 360.528L630.504 357.871 635.106 313.952 637.138 316.078z" fill="rgb(22,63,89)"/><path d="M496.492 248.999 498.461 246.659 505.869 255.457 513.273 264.255H498.461 483.655L491.058 255.457 496.492 248.999z" fill="rgb(0,99,203)"/><path d="M637.641 360.067 636.993 363.892 633.103 363.974C633.103 363.974 630.189 364.039 629.458 364.05 628.728 364.068 624.354 364.161 624.354 364.161L624.324 362.759C624.324 362.759 630.358 360.528 631.52 358.169 632.682 355.809 637.641 360.067 637.641 360.067z" fill="rgb(22,23,17)"/><path d="M651.511 206.069 651.289 203.749 650.332 203.842 647.808 204.083 646.284 204.228C644.602 204.389 643.364 205.885 643.522 207.572L643.744 209.888 644.701 209.794 647.231 209.554 648.754 209.409C650.436 209.247 651.675 207.751 651.511 206.069z" fill="rgb(22,63,89)"/><path d="M657.655 219.686C657.795 221.182 656.697 222.512 655.203 222.655L649.047 223.243C647.546 223.387 646.22 222.289 646.074 220.79L644.9 208.482C644.76 206.986 645.858 205.655 647.353 205.51L653.508 204.923C655.004 204.779 656.336 205.878 656.481 207.378L657.655 219.686z" fill="rgb(233,214,184)"/><path d="M651.487 203.732C652.551 203.629 653.538 204.091 654.169 204.868L655.214 204.767C656.516 204.643 657.678 205.601 657.801 206.904L658.362 212.742 656.697 212.904 656.47 210.527C656.382 209.61 655.564 208.938 654.648 209.025L653.678 209.118 651.155 209.359 649.631 209.504C647.943 209.665 646.448 208.43 646.29 206.745L646.05 204.25 651.487 203.732z" fill="rgb(22,63,89)"/><path d="M656.318 214.468C656.242 213.671 656.826 212.961 657.626 212.885L657.742 212.873C658.543 212.797 659.255 213.382 659.331 214.18L659.501 215.937C659.576 216.737 658.987 217.448 658.192 217.525L658.07 217.536C657.48 217.592 656.937 217.286 656.662 216.799" fill="rgb(233,214,184)"/><path d="M386.536 197.976H318.451V133.966H386.536V197.976z" fill="rgb(0,99,203)"/><path d="M465.852 197.976H397.767V133.966H465.852V197.976z" fill="rgb(243,170,6)"/><path d="M545.269 197.976H477.184V133.966H545.269V197.976z" fill="rgb(0,99,203)"/><path d="M626.083 469.625H516.229V366.347H626.083V469.625z" fill="rgb(243,170,6)"/><path d="M322.056 194.584V154.496 137.356H382.929V194.584H322.056z" fill="rgb(43,131,253)"/><path d="M401.372 194.584V154.496 137.356H462.245V194.584H401.372z" fill="rgb(254,206,64)"/><path d="M480.789 194.584V154.496 137.356H541.662V194.584H480.789z" fill="rgb(43,131,253)"/><path d="M522.045 464.153V399.472 371.817H620.262V464.153H522.045z" fill="rgb(254,206,64)"/><path d="M344.572 154.993C344.572 157.808 342.146 160.09 339.151 160.09 336.158 160.09 333.731 157.808 333.731 154.993 333.731 152.18 336.158 149.899 339.151 149.899 342.146 149.899 344.572 152.18 344.572 154.993z" fill="rgb(0,99,203)"/><path d="M423.889 154.993C423.889 157.808 421.462 160.09 418.467 160.09 415.475 160.09 413.049 157.808 413.049 154.993 413.049 152.18 415.475 149.899 418.467 149.899 421.462 149.899 423.889 152.18 423.889 154.993z" fill="rgb(243,170,6)"/><path d="M503.305 154.993C503.305 157.808 500.878 160.09 497.884 160.09 494.891 160.09 492.464 157.808 492.464 154.993 492.464 152.18 494.891 149.899 497.884 149.899 500.878 149.899 503.305 152.18 503.305 154.993z" fill="rgb(0,99,203)"/><path d="M558.375 400.275C558.375 404.815 554.46 408.498 549.628 408.498 544.799 408.498 540.884 404.815 540.884 400.275 540.884 395.735 544.799 392.054 549.628 392.054 554.46 392.054 558.375 395.735 558.375 400.275z" fill="rgb(243,170,6)"/><path d="M359.538 166.341 370.085 178.874 380.629 191.403H359.538 338.444L348.994 178.874 359.538 166.341z" fill="rgb(0,99,203)"/><path d="M438.854 166.341 449.402 178.874 459.946 191.403H438.854 417.761L428.311 178.874 438.854 166.341z" fill="rgb(243,170,6)"/><path d="M518.271 166.341 528.818 178.874 539.361 191.403H518.271 497.177L507.727 178.874 518.271 166.341z" fill="rgb(0,99,203)"/><path d="M582.522 418.582 599.54 438.804 616.551 459.02H582.522 548.488L565.51 438.804 582.522 418.582z" fill="rgb(243,170,6)"/><path d="M337.76 176.147 339.728 173.807 347.136 182.605 354.54 191.403H339.728 324.922L332.325 182.605 337.76 176.147z" fill="rgb(0,99,203)"/><path d="M417.076 176.147 419.046 173.807 426.453 182.605 433.856 191.403H419.046 404.238L411.642 182.605 417.076 176.147z" fill="rgb(243,170,6)"/><path d="M496.492 176.147 498.461 173.807 505.869 182.605 513.273 191.403H498.461 483.655L491.058 182.605 496.492 176.147z" fill="rgb(0,99,203)"/><path d="M547.383 434.404 550.56 430.629 562.513 444.824 574.458 459.02H550.56 526.67L538.615 444.824 547.383 434.404z" fill="rgb(243,170,6)"/><path d="M639.299 255.273 621.212 255.808C621.212 255.808 634.615 263.876 639.48 259.809 644.351 255.737 639.299 255.273 639.299 255.273z" fill="rgb(233,214,184)"/><path d="M659.653 229.693C659.653 229.693 663.875 231.864 661.848 238.138 658.397 248.834 651.19 257.644 649.835 259.405 648.474 261.17 643.744 265.441 640.578 264.027 637.419 262.616 637.419 262.616 637.419 262.616L637.202 255.487 639.299 255.273 640.543 255.04C640.543 255.04 644.917 248.093 648.58 241.326 652.235 234.562 659.653 229.693 659.653 229.693z" fill="rgb(0,99,203)"/><path d="M623.244 256.051C623.244 256.051 623.589 252.911 623.005 252.248 622.415 251.584 620.114 249.309 620.114 249.309L619.477 248.782C619.477 248.782 618.567 249.201 620.132 250.711 621.69 252.226 620.564 251.922 620.564 251.922L618.671 251.117 616.294 250.318 615.272 249.82C615.272 249.82 614.717 249.495 614.525 249.534 613.964 249.657 614.268 250.068 614.268 250.068L618.082 252.358 614.058 251.258C614.058 251.258 613.52 251.206 613.403 251.478 613.293 251.735 613.456 251.79 613.456 251.79L617.772 254.178 615.64 253.857C615.64 253.857 615.109 253.823 614.986 254.082 614.846 254.365 614.805 254.437 614.805 254.437L622.888 256.877 623.244 256.051z" fill="rgb(233,214,184)"/><path d="M646.868 288.088 643.995 287.489C643.995 287.489 643.364 287.28 643.019 287.377 642.628 287.49 642.71 287.864 642.71 287.864L646.973 289.219 646.868 288.088z" fill="rgb(233,214,184)"/><path d="M353.027 120.998H313.173V81.142H353.027V120.998z" fill="rgb(146,180,0)"/><path d="M317.114 117.056V85.083H349.09v31.973H317.114z" fill="rgb(159,196,0)"/><path d="M328.941 94.937C328.941 96.51 327.668 97.784 326.091 97.784 324.52 97.784 323.247 96.51 323.247 94.937 323.247 93.365 324.52 92.091 326.091 92.091 327.668 92.091 328.941 93.365 328.941 94.937z" fill="rgb(146,180,0)"/><path d="M336.522 100.869 341.626 107.321 346.73 113.771H336.522 326.313L331.418 107.321 336.522 100.869z" fill="rgb(146,180,0)"/><path d="M326.938 104.713 330.518 109.242 334.104 113.771H326.938 319.766L323.352 109.242 326.938 104.713z" fill="rgb(146,180,0)"/><path d="M301.679 78.534H261.819V38.679H301.679V78.534z" fill="rgb(181,209,222)"/><path d="M265.761 74.593V42.62h31.976V74.593H265.761z" fill="rgb(216,229,237)"/><path d="M277.588 52.475C277.588 54.048 276.315 55.321 274.743 55.321 273.173 55.321 271.893 54.048 271.893 52.475 271.893 50.903 273.173 49.628 274.743 49.628 276.315 49.628 277.588 50.903 277.588 52.475z" fill="rgb(181,209,222)"/><path d="M285.168 58.407 290.279 64.859 295.377 71.307H285.168 274.959L280.07 64.859 285.168 58.407z" fill="rgb(181,209,222)"/><path d="M275.585 62.25 279.171 66.779 282.75 71.307H275.585 268.419L272.005 66.779 275.585 62.25z" fill="rgb(181,209,222)"/><path d="M280.829 114.565H252.341V86.077h28.488v28.488z" fill="rgb(43,131,253)"/><path d="M255.155 111.748V88.895H278.014V111.748H255.155z" fill="rgb(78,153,255)"/><path d="M263.612 95.938C263.612 97.062 262.701 97.974 261.574 97.974 260.452 97.974 259.541 97.062 259.541 95.938 259.541 94.814 260.452 93.904 261.574 93.904 262.701 93.904 263.612 94.814 263.612 95.938z" fill="rgb(43,131,253)"/><path d="M269.032 100.178 272.676 104.789 276.326 109.399H269.032 261.732L265.382 104.789 269.032 100.178z" fill="rgb(43,131,253)"/><path d="M262.175 102.925 264.739 106.162 267.303 109.399H262.175 257.053L259.617 106.162 262.175 102.925z" fill="rgb(43,131,253)"/><path d="M256.247 79.391H236.712V59.855H256.247V79.391z" fill="rgb(224,64,55)"/><path d="M238.639 77.459V61.787H254.314V77.459H238.639z" fill="rgb(255,89,49)"/><path d="M244.439 66.617C244.439 67.388 243.813 68.013 243.042 68.013 242.272 68.013 241.647 67.388 241.647 66.617 241.647 65.847 242.272 65.222 243.042 65.222 243.813 65.222 244.439 65.847 244.439 66.617z" fill="rgb(224,64,55)"/><path d="M248.153 69.526 250.659 72.688 253.158 75.849H248.153 243.148L245.653 72.688 248.153 69.526z" fill="rgb(224,64,55)"/><path d="M243.457 71.409 245.215 73.628 246.967 75.849H243.457 239.941L241.699 73.628 243.457 71.409z" fill="rgb(224,64,55)"/><path d="M307.244 197.301H243.013V133.072H307.244V197.301z" fill="rgb(243,170,6)"/><path d="M249.368 190.948V139.425H300.89V190.948H249.368z" fill="rgb(254,206,64)"/><path d="M268.424 155.305C268.424 157.838 266.369 159.892 263.834 159.892 261.305 159.892 259.249 157.838 259.249 155.305 259.249 152.771 261.305 150.718 263.834 150.718 266.369 150.718 268.424 152.771 268.424 155.305z" fill="rgb(243,170,6)"/><path d="M280.642 164.863 288.871 175.26 297.094 185.654H280.642 264.19L272.419 175.26 280.642 164.863z" fill="rgb(243,170,6)"/><path d="M265.195 171.057 270.971 178.355 276.747 185.654H265.195 253.643L259.418 178.355 265.195 171.057z" fill="rgb(243,170,6)"/><path d="M246.547 322.936C246.868 322.607 246.734 321.658 246.734 321.658 246.734 321.658 241.658 320.676 239.982 320.93 239.544 320.997 238.791 321.305 238.078 321.645 237.961 321.7 237.728 322.077 237.605 322.133 237.395 322.239 237.302 322.023 237.121 322.119 236.641 322.371 236.297 322.571 236.291 322.597 235.654 324.909 236.174 325.905 236.174 325.905 236.174 325.905 240.286 327.552 241.314 326.759 243.936 324.746 245.846 323.662 246.547 322.936z" fill="rgb(22,23,17)"/><path d="M258.35 318.673 257.994 322.553 261.743 323.632C261.743 323.632 262.105 323.171 262.42 323.262 262.684 323.339 262.882 323.96 263.244 324.066 264.033 324.291 264.903 324.543 265.259 324.645 265.96 324.847 272.781 326.812 272.781 326.812 272.781 326.812 273.173 326.087 273.038 325.762 272.974 325.592 272.413 325.176 272.034 324.936 270.253 323.836 265.201 320.537 264.768 318.412 264.249 315.823 258.35 318.673 258.35 318.673z" fill="rgb(22,23,17)"/><path d="M261.305 194.051 260.703 189.36C260.703 189.36 263.904 188.543 263.939 186.658 264.021 182.876 261.171 177.842 259.921 176.583 256.364 173.004 252.925 165.79 245.122 175.098 242.155 178.642 251.663 187.709 252.901 189.951 254.139 192.191 253.795 195.372 253.795 195.372L256.68 196.317 261.305 194.051z" fill="rgb(233,214,184)"/><path d="M241.028 225.733 260.54 231.391C260.54 231.391 249 233.96 239.352 231.892 229.709 229.821 240.088 225.836 241.028 225.733z" fill="rgb(226,197,156)"/><path d="M249.251 273.451C249.251 273.451 257.059 283.233 254.209 291.55 249.134 306.343 245.052 318.201 243.358 323.15 242.704 325.072 242.173 324.673 242.173 324.673L237.88 324.804 235.999 322.887 244.853 288.814 249.251 273.451z" fill="rgb(22,63,89)"/><path d="M291.219 192.768 303.244 178.195C303.244 178.195 298.636 198.246 292.113 199.865 285.595 201.489 291.219 192.768 291.219 192.768z" fill="rgb(233,214,184)"/><path d="M253.251 194.971C253.251 194.971 248.959 194.478 240.8 210.263 232.641 226.047 234.393 225.947 234.393 225.947L233.523 229.885 239.544 232.722 247.89 219.545 253.251 194.971z" fill="rgb(147,181,0)"/><path d="M269.54 245.577C269.54 245.577 261.568 278.428 250.892 297.149 245.174 307.166 245.542 292.769 245.542 292.769L254.379 233.657 274.767 232.693C274.767 232.693 272.641 235.381 269.54 245.577z" fill="rgb(22,63,89)"/><path d="M255.92 243.953C255.92 243.953 272.308 277.028 273.091 279.388 276.934 290.911 281.816 276.758 282.056 273.946 282.295 271.131 281.214 256.702 277.36 242.826 273.5 228.953 273.5 228.953 273.5 228.953L255.92 243.953z" fill="rgb(22,63,89)"/><path d="M272.688 272.95C272.688 272.95 269.885 278.642 266.784 286.055 264.5 291.499 259.851 307.58 257.666 319.053 257.532 319.754 265.236 319.719 265.236 319.719 265.236 319.719 276.84 289.195 279.457 282.364 282.067 275.532 278.58 269.23 272.688 272.95z" fill="rgb(22,63,89)"/><path d="M247.148 199.775 252.13 194.492 254.238 191.662 263.419 190.379 265.364 193.203 272.904 195.908C272.904 195.908 275.012 198.845 274.785 210.655 274.533 223.741 281.051 241.668 278.441 243.627 261.346 256.458 252.294 246.416 252.294 246.416 252.294 246.416 243.562 221.755 247.148 199.775z" fill="rgb(159,196,0)"/><path d="M260.248 197.69C260.248 197.69 259.214 199.883 265.259 201.601 275.567 204.536 286.365 203.495 288.486 203.356 290.6 203.215 293.555 202.933 295.552 199.104 297.083 196.179 297.608 195.218 297.608 195.218L291.803 191.128 290.506 192.706 289.946 193.676C289.946 193.676 282.137 193.245 274.82 192.779 257.731 191.69 260.248 197.69 260.248 197.69z" fill="rgb(159,196,0)"/><path d="M257.579 178.786C257.579 178.786 256.23 178.479 256.352 179.39 256.469 180.306 257.708 181.979 258.274 181.979 258.847 181.977 259.798 184.226 259.798 184.226L259.302 187.253 252.381 189.6C252.381 189.6 249.923 189.385 249.227 187.906 248.539 186.423 243.148 176.147 243.148 176.147L247.148 171.931C247.148 171.931 249.28 169.778 250.904 168.659 253.386 166.936 254.466 168.211 254.642 169.01 254.816 169.807 255.704 169.604 256.808 169.229 257.924 168.852 259.582 169.241 259.156 169.958 258.981 170.253 260.313 170.556 260.154 171.52 259.921 172.899 257.953 173.989 258.42 175.926 258.631 176.805 259.232 179.746 257.579 178.786z" fill="rgb(25,72,102)"/><path d="M302.49 182.192C302.49 182.192 299.588 180.822 299.378 179.931 299.168 179.038 298.619 175.72 298.619 175.72L298.56 174.858C298.56 174.858 299.471 174.257 299.816 176.488 300.154 178.727 300.587 177.537 300.587 177.537L301.042 175.384 301.813 172.786 302.012 171.595C302.012 171.595 302.064 170.914 302.222 170.758 302.66 170.317 302.823 170.817 302.823 170.817L302.461 175.515 303.974 171.26C303.974 171.26 304.266 170.747 304.564 170.783 304.85 170.825 304.798 171.004 304.798 171.004L304.22 176.206 305.241 174.098C305.241 174.098 305.527 173.6 305.825 173.624 306.153 173.65 306.246 173.648 306.246 173.648L303.407 182.31 302.49 182.192z" fill="rgb(233,214,184)"/></g></g></g></g></svg>