<svg xmlns="http://www.w3.org/2000/svg" xmlns:xlink="http://www.w3.org/1999/xlink" style="isolation:isolate" viewBox="0 0 800 550" width="800pt" height="550pt"><clipPath id="_clipPath_TzgcIEflYM90VxCw77xysqLsMJttLbAG"><path d="M-1.315 14.011h8e2v550h-8e2z" transform="matrix(1,0,0,1,0,0)" fill="rgb(255,255,255)"/></clipPath><g clip-path="url(#_clipPath_TzgcIEflYM90VxCw77xysqLsMJttLbAG)"><g><g><g><path d="M639.353 372.851C639.353 372.851 638.027 368.781 639.536 365.032 640.086 363.674 642.175 361.791 643.584 362.362 644.998 362.929 645.442 365.118 644.643 367.091 643.134 370.842 639.353 372.851 639.353 372.851z" fill="rgb(255,171,1)"/><path d="M637.287 379.276C637.287 379.276 639.116 376.008 642.394 374.823 643.584 374.395 646.01 374.684 646.465 375.959 646.927 377.231 645.791 378.811 644.063 379.433 640.785 380.62 637.287 379.276 637.287 379.276z" fill="rgb(255,171,1)"/><path d="M633.47 386.166C633.47 386.166 636.471 383.928 639.95 384.184 641.211 384.279 643.299 385.534 643.199 386.883 643.104 388.232 641.418 389.21 639.589 389.075 636.11 388.819 633.47 386.166 633.47 386.166z" fill="rgb(255,171,1)"/><path d="M637.122 379.411C637.122 379.411 633.914 378.085 632.056 375.135 631.388 374.066 630.985 371.74 631.92 371.154 632.855 370.562 634.471 371.444 635.453 372.997 637.311 375.949 637.122 379.411 637.122 379.411z" fill="rgb(255,171,1)"/><path d="M633.914 386.399C633.914 386.399 630.612 385.137 628.76 382.187 628.08 381.117 627.725 378.765 628.713 378.14 629.707 377.517 631.364 378.372 632.346 379.927 634.204 382.877 633.914 386.399 633.914 386.399z" fill="rgb(255,171,1)"/><path d="M627.813 395.067C627.813 395.067 624.866 394.372 623.446 392.118 622.931 391.303 622.849 389.385 623.837 388.762 624.831 388.139 626.287 388.669 627.038 389.856 628.452 392.112 627.813 395.067 627.813 395.067z" fill="rgb(255,171,1)"/><path d="M628.18 395.272C628.18 395.272 630.34 393.345 633.163 393.134 634.186 393.057 636.009 393.708 636.08 394.677 636.151 395.642 634.914 396.525 633.423 396.637 630.606 396.85 628.18 395.272 628.18 395.272z" fill="rgb(255,171,1)"/><path d="M611.357 434.581C612.002 435.199 612.582 435.395 612.623 435.41L612.842 434.734 612.73 435.069 612.842 434.734C612.777 434.713 611.268 434.176 610.57 431.875 609.783 429.295 610.327 425.637 612.173 420.999 614.712 414.639 619.677 406.61 626.932 397.14 635.358 386.138 637.696 378.96 639.246 374.209 639.642 372.994 639.986 371.941 640.358 371.081L639.708 370.801C639.323 371.691 638.974 372.757 638.571 373.99 637.039 378.695 634.719 385.803 626.369 396.708 610.221 417.794 608.499 427.605 609.901 432.123 610.268 433.305 610.836 434.08 611.357 434.581z" fill="rgb(255,171,1)"/><path d="M606.35 421.075C589.852 428.364 578.958 443.138 575.816 459.754 590.219 468.619 608.475 470.518 624.973 463.228 641.477 455.937 652.365 441.161 655.513 424.544 641.11 415.681 622.854 413.785 606.35 421.075z" fill="rgb(254,193,47)"/><path d="M649.318 427.512 578.923 458.612 578.532 457.724 648.921 426.625" fill="rgb(255,255,255)"/><path d="M634.843 433.129 646.655 438.704 646.241 439.581 634.429 434.007" fill="rgb(255,255,255)"/><path d="M622.843 438.432 637.4 445.304 636.986 446.179 622.428 439.31" fill="rgb(255,255,255)"/><path d="M610.842 443.736 635.175 455.221 634.761 456.097 610.428 444.611" fill="rgb(255,255,255)"/><path d="M598.835 449.038 622.511 460.216 622.097 461.092 598.421 449.913" fill="rgb(255,255,255)"/><path d="M586.835 454.34 600.019 460.565 599.605 461.441 586.42 455.215" fill="rgb(255,255,255)"/><path d="M635.53 432.574 639.358 420.09 640.287 420.374 636.453 432.859" fill="rgb(255,255,255)"/><path d="M623.529 437.878 629.494 418.413 630.423 418.697 624.452 438.163" fill="rgb(255,255,255)"/><path d="M611.522 443.179 618.996 418.815 619.925 419.1 612.451 443.463" fill="rgb(255,255,255)"/><path d="M599.522 448.481 607.197 423.453 608.126 423.738 600.451 448.765" fill="rgb(255,255,255)"/><path d="M587.521 453.789 594.113 432.286 595.042 432.57 588.444 454.073" fill="rgb(255,255,255)"/><path d="M560.519 407.268C549.223 423.688 547.548 443.901 554.223 461.352 572.905 461.334 591.178 452.535 602.469 436.113 613.759 419.692 615.44 399.482 608.765 382.031 590.083 382.044 571.81 390.845 560.519 407.268z" fill="rgb(254,193,47)"/><path d="M604.658 388.415 556.484 458.47 555.602 457.867 603.77 387.808" fill="rgb(255,255,255)"/><path d="M594.302 402.087 608.641 400.484 608.759 401.549 594.421 403.152" fill="rgb(255,255,255)"/><path d="M586.089 414.031 603.765 412.057 603.883 413.122 586.207 415.097" fill="rgb(255,255,255)"/><path d="M577.875 425.975 607.422 422.674 607.54 423.74 577.994 427.04" fill="rgb(255,255,255)"/><path d="M569.662 437.924 598.403 434.713 598.522 435.778 569.78 438.99" fill="rgb(255,255,255)"/><path d="M561.448 449.866 577.449 448.079 577.568 449.144 561.567 450.931" fill="rgb(255,255,255)"/><path d="M594.628 401.169 590.989 387.206 592.024 386.936 595.663 400.899" fill="rgb(255,255,255)"/><path d="M586.414 413.115 580.745 391.345 581.781 391.075 587.45 412.845" fill="rgb(255,255,255)"/><path d="M578.195 425.06 571.1 397.81 572.135 397.539 579.236 424.79" fill="rgb(255,255,255)"/><path d="M569.987 437.004 562.691 409.014 563.733 408.744 571.023 436.734" fill="rgb(255,255,255)"/><path d="M561.768 448.949 555.507 424.906 556.549 424.635 562.803 448.683" fill="rgb(255,255,255)"/><path d="M630.772 474.246C632.92 470.944 630.251 468.139 620.055 466.648 608.931 465.021 598.297 466.127 589.551 468.145 610.179 458.151 634.228 444.114 612.274 442.493 605.427 441.984 594.894 445.298 583.183 450.476 596.249 439.847 603.439 431.109 595.521 429.486 588.172 427.977 573.189 436.623 557.241 448.103 566.33 438.482 571.591 430.09 567.508 426.13 564.176 422.897 557.075 426.607 548.897 433.479 549.264 427.436 546.726 423.787 540.926 424.519 535.476 425.208 531.062 432.203 527.908 440.595 522.683 427.58 508.871 419.621 494.941 423.573 478.573 428.213 491.722 459.411 499.042 474.246H630.772z" fill="rgb(0,99,203)"/><path d="M557.998 384.144 557.939 384.206C556.785 385.534 537.701 408.107 529.582 458.902L528.955 458.802C537.358 406.239 557.49 383.755 557.525 383.719L557.998 384.144v0z" fill="rgb(0,99,203)"/><path d="M535.885 395.564C535.885 395.565 535.849 395.657 535.772 395.841 534.636 398.601 525.493 421.658 525.493 448.132 525.493 449.984 525.541 451.854 525.636 453.73L524.996 453.766C524.902 451.872 524.86 449.99 524.86 448.132 524.86 419.739 535.293 395.336 535.305 395.314L535.885 395.565V395.564z" fill="rgb(0,99,203)"/><path d="M554.945 416.158 554.898 416.186C554.401 416.488 549.986 419.257 545.708 425.08 541.429 430.904 537.275 439.774 537.275 452.322 537.275 453.215 537.293 454.127 537.34 455.056L536.701 455.085C536.66 454.144 536.636 453.221 536.636 452.322 536.636 439.222 541.122 430.037 545.619 424.14 550.11 418.242 554.602 415.623 554.625 415.608L554.945 416.158z" fill="rgb(0,99,203)"/><path d="M560.04 379.565C564.561 381.927 567.449 385.326 566.49 387.156 565.531 388.987 561.093 388.557 556.578 386.194 552.057 383.833 549.17 380.434 550.128 378.602 551.087 376.773 555.525 377.202 560.04 379.565z" fill="rgb(0,99,203)"/><path d="M558.862 381.829C560.294 382.577 561.212 383.657 560.91 384.239 560.602 384.819 559.194 384.683 557.762 383.931 556.324 383.183 555.407 382.102 555.714 381.522 556.016 380.941 557.424 381.076 558.862 381.829z" fill="rgb(12,17,83)"/><path d="M536.547 393.621C538.429 394.603 539.63 396.019 539.228 396.781 538.832 397.542 536.985 397.364 535.104 396.381 533.222 395.396 532.02 393.982 532.417 393.221 532.819 392.458 534.666 392.637 536.547 393.621z" fill="rgb(0,99,203)"/><path d="M536.05 394.563C536.648 394.873 537.033 395.323 536.908 395.565 536.778 395.807 536.192 395.752 535.595 395.44 534.997 395.127 534.618 394.678 534.743 394.433 534.873 394.193 535.459 394.248 536.05 394.563z" fill="rgb(12,17,83)"/><path d="M556.146 414.408C558.158 416.265 559.176 418.43 558.424 419.246 557.673 420.06 555.43 419.214 553.424 417.358 551.412 415.502 550.394 413.336 551.146 412.521 551.897 411.706 554.134 412.551 556.146 414.408z" fill="rgb(0,99,203)"/><path d="M555.217 415.414C555.856 416.004 556.182 416.693 555.939 416.951 555.702 417.21 554.992 416.94 554.353 416.351 553.714 415.761 553.389 415.074 553.625 414.815 553.868 414.557 554.578 414.825 555.217 415.414z" fill="rgb(12,17,83)"/><path d="M572.443 452.996C573.141 452.89 573.627 452.233 573.52 451.529 573.414 450.831 572.757 450.345 572.058 450.452 571.354 450.558 570.875 451.215 570.976 451.919 571.088 452.618 571.739 453.103 572.443 452.996zM569.514 452.109C569.603 452.038 569.691 451.979 569.78 451.914L569.644 451.86C568.419 451.381 567.632 450.476 567.881 449.836 568.129 449.197 569.325 449.067 570.55 449.547 570.656 449.588 570.757 449.635 570.851 449.683L570.828 449.535C570.632 448.233 571.023 447.103 571.697 446.996 572.378 446.895 573.088 447.86 573.283 449.162 573.301 449.274 573.313 449.381 573.319 449.493L573.431 449.399C574.461 448.576 575.639 448.345 576.071 448.884 576.497 449.416 576.011 450.517 574.988 451.34 574.899 451.411 574.81 451.47 574.721 451.535L574.857 451.582C576.082 452.061 576.869 452.967 576.621 453.606 576.372 454.245 575.177 454.375 573.952 453.896 573.846 453.86 573.745 453.813 573.65 453.766L573.674 453.914C573.875 455.215 573.479 456.346 572.804 456.446 572.124 456.553 571.413 455.582 571.218 454.281 571.2 454.174 571.189 454.062 571.183 453.955L571.07 454.05C570.041 454.872 568.863 455.103 568.431 454.565 568.005 454.026 568.49 452.931 569.514 452.109z" fill="rgb(255,255,255)"/></g><path d="M547.347 51.236C547.347 51.236 558.796 33.318 573.927 45.391 573.927 45.391 584.728 29.758 599.996 40.437 599.996 40.437 615.235 19.767 627.006 39.305 627.006 39.305 629.723 43.326 631.056 47.477 632.054 50.582 637.146 51.237 637.146 51.237L547.347 51.236z" fill="rgb(209,239,252)"/><path d="M320.601 57.24C320.601 57.24 335.56 33.83 355.329 49.603 355.329 49.603 369.441 29.179 389.39 43.131 389.39 43.131 409.301 16.125 424.68 41.652 424.68 41.652 428.229 46.906 429.972 52.329 431.275 56.387 437.928 57.242 437.928 57.242L320.601 57.24z" fill="rgb(119,183,245)"/><g><path d="M469.212 315.776 228.027 316.83C224.522 316.83 221.678 314.817 221.678 312.33L220.741 107.104 479.106 104.643 475.561 311.28C475.561 313.767 472.722 315.776 469.212 315.776z" fill="rgb(209,239,252)"/><mask id="_mask_nMdXJSjQsfyykmhKlhYIeuBG4ctoTLm7" x="-200%" y="-200%" width="400%" height="400%"><path d="M-2e2-2e2h4e2v4e2H-2e2z" style="fill:#fff"/><path d="M466.503 311.943 225.317 312.997C221.812 312.997 218.968 310.984 218.968 308.497L218.031 103.271 476.396 100.81 472.851 307.447C472.851 309.934 470.012 311.943 466.503 311.943z" fill="#000" stroke="none"/></mask><path d="M466.503 311.943 225.317 312.997C221.812 312.997 218.968 310.984 218.968 308.497L218.031 103.271 476.396 100.81 472.851 307.447C472.851 309.934 470.012 311.943 466.503 311.943z" fill="rgb(255,255,255)" mask="url(#_mask_nMdXJSjQsfyykmhKlhYIeuBG4ctoTLm7)" vector-effect="non-scaling-stroke" stroke-width="2" stroke="rgb(45,72,156)" stroke-opacity="100" stroke-linejoin="miter" stroke-linecap="square" stroke-miterlimit="3"/><path d="M466.503 311.943 225.317 312.997C221.812 312.997 218.968 310.984 218.968 308.497L218.031 103.271 476.396 100.81 472.851 307.447C472.851 309.934 470.012 311.943 466.503 311.943z" fill="rgb(255,255,255)"/><path d="M475.238 103.271 218.572 105.736 216.686 79.203C216.686 76.985 219.211 75.181 222.321 75.181L470.761 72.587C473.876 72.587 476.396 74.387 476.396 76.608L475.238 103.271z" fill="rgb(26,115,232)"/><path d="M379.654 93.564H278.656L277.818 86.154H379.654V93.564z" fill="rgb(255,255,255)"/><path d="M232.421 85.276H228.765V81.691L232.242 81.801 232.421 85.276z" fill="rgb(255,255,255)"/><path d="M240.121 85.276H236.644L236.437 81.597 239.958 81.801 240.121 85.276z" fill="rgb(255,192,8)"/><path d="M247.096 85.276H243.802L243.622 81.801H247.096V85.276z" fill="rgb(255,114,1)"/></g><path d="M562.227 424.599 262.354 425.909C257.997 425.909 254.461 423.407 254.461 420.315L253.295 165.152 574.528 162.091 570.121 419.009C570.121 422.101 566.59 424.599 562.227 424.599z" fill="rgb(209,239,252)"/><mask id="_mask_Ps4naZwj8v2WE99L2igyIDDLfbTWWLBe" x="-200%" y="-200%" width="400%" height="400%"><path d="M-2e2-2e2h4e2v4e2H-2e2z" style="fill:#fff"/><path d="M558.858 419.834 258.985 421.144C254.627 421.144 251.092 418.642 251.092 415.55L249.926 160.386 571.159 157.326 566.751 414.244C566.751 417.336 563.221 419.834 558.858 419.834z" fill="#000" stroke="none"/></mask><path d="M558.858 419.834 258.985 421.144C254.627 421.144 251.092 418.642 251.092 415.55L249.926 160.386 571.159 157.326 566.751 414.244C566.751 417.336 563.221 419.834 558.858 419.834z" fill="rgb(255,255,255)" mask="url(#_mask_Ps4naZwj8v2WE99L2igyIDDLfbTWWLBe)" vector-effect="non-scaling-stroke" stroke-width="2" stroke="rgb(45,72,156)" stroke-opacity="100" stroke-linejoin="miter" stroke-linecap="square" stroke-miterlimit="3"/><path d="M558.858 419.834 258.985 421.144C254.627 421.144 251.092 418.642 251.092 415.55L249.926 160.386 571.159 157.326 566.751 414.244C566.751 417.336 563.221 419.834 558.858 419.834z" fill="rgb(255,255,255)"/><path d="M569.719 160.386 250.598 163.451 248.254 130.461C248.254 127.704 251.393 125.461 255.26 125.461L564.153 122.235C568.025 122.235 571.159 124.474 571.159 127.235L569.719 160.386z" fill="rgb(45,72,156)"/><path d="M450.877 148.317H325.303L324.26 139.104H450.877V148.317z" fill="rgb(255,255,255)"/><path d="M267.817 138.012H263.273V133.555L267.595 133.692 267.817 138.012z" fill="rgb(255,255,255)"/><path d="M277.391 138.012H273.068L272.811 133.438 277.189 133.692 277.391 138.012z" fill="rgb(255,192,8)"/><path d="M286.064 138.012H281.968L281.744 133.692H286.064V138.012z" fill="rgb(255,114,1)"/><path d="M436.016 322.202C436.171 322.576 436.379 322.985 436.581 323.392 436.379 322.985 436.171 322.576 436.016 322.202z" fill="rgb(254,227,161)"/><path d="M437.107 324.435C437.256 324.701 437.633 325.605 437.805 325.885L437.928 325.736C437.642 325.292 437.349 324.842 437.116 324.427L437.107 324.435z" fill="rgb(254,227,161)"/><path d="M437.034 324.301 437.004 324.248 437.031 324.307 437.034 324.301z" fill="rgb(254,227,161)"/><path d="M435.692 321.331 435.496 320.735 435.476 320.752 435.692 321.331z" fill="rgb(254,227,161)"/><path d="M438.971 331.432 438.799 329.935H438.802L438.971 331.432v0z" fill="rgb(123,156,186)"/><path d="M427.332 494.918C303.7 494.918 198.591 489.274 160.12 481.406 172.648 480.196 180.621 478.37 180.621 476.33 180.621 473.825 168.57 471.645 150.813 470.527 159.775 467.564 177.865 464.852 202.888 462.531 209.336 467.124 217.09 469.806 225.436 469.806H625.736C634.255 469.806 642.153 467.014 648.676 462.25 687.181 465.689 710.196 470.044 710.196 474.784 710.196 485.908 583.556 494.918 427.332 494.918z" fill="rgb(127,202,236)" fill-opacity=".5"/><path d="M637.146 197.129 636.376 198.644 633.137 198.62 633.056 196.811 637.146 197.129z" fill="rgb(255,209,166)"/><g><path d="M615.904 485.883C587.781 485.883 564.984 483.625 564.984 480.846 564.984 478.066 587.781 475.813 615.904 475.813 644.027 475.813 666.824 478.066 666.824 480.846 666.824 483.625 644.027 485.883 615.904 485.883z" fill="rgb(113,189,225)"/><path d="M600.713 461.609 593.576 462.33 590.727 470.822 582.66 476.008 583.739 478.341 598.561 478.085 598.942 473.276 598.67 470.52 600.713 461.609z" fill="rgb(255,197,144)"/><path d="M599.236 473.243 599.056 471.73C599.047 470.911 597.206 472.512 596.671 472.656 594.339 473.29 589.815 475.338 586.417 475.436 585.926 475.45 586.794 473.965 587.316 473.243L586.851 473.066 583.322 474.733 571.981 477.945 571.968 480.012H599.433L599.455 476.958 599.236 473.243z" fill="rgb(25,26,45)"/><path d="M571.968 480.012 571.972 478.993 599.455 477.14V478.15L599.433 480.012H571.968z" fill="rgb(88,89,91)"/><linearGradient id="_lgradient_0" x1="0" y1=".5000029451784487" x2=".999981429208141" y2=".5000029451784487" gradientTransform="matrix(53.848,0,0,169.769,589.324,296.048)" gradientUnits="userSpaceOnUse"><stop offset="0" stop-opacity="1" style="stop-color:#223675"/><stop offset=".27027%" stop-opacity="1" style="stop-color:#223675"/><stop offset="100%" stop-opacity="1" style="stop-color:#2d489c"/></linearGradient><path d="M615.036 296.048 610.726 314.158 604.773 394.676 589.324 465.817 600.713 464.807 620.055 392.879 643.172 301.392 615.036 296.048z" fill="url(#_lgradient_0)"/><path d="M647.543 461.944 641.51 462.619 639.915 471.609 630.743 476.842 631.826 479.174 646.648 478.923 647.025 474.109 646.754 471.358 647.543 461.944z" fill="rgb(255,197,144)"/><path d="M647.324 474.081 647.144 472.563C647.131 471.749 645.289 473.346 644.755 473.494 642.427 474.118 637.902 476.176 634.5 476.269 634.014 476.283 634.873 474.803 635.399 474.081L634.934 473.904 631.405 475.566 620.064 478.779 620.055 480.846H647.521L647.543 477.792 647.324 474.081z" fill="rgb(25,26,45)"/><path d="M620.055 480.846V479.831L647.543 477.973V478.983L647.521 480.846H620.055z" fill="rgb(88,89,91)"/><linearGradient id="_lgradient_1" x1="-1.1469777379557513" y1=".7300984178397909" x2="1.274939198322227" y2="-1.4280443569436214" gradientTransform="matrix(29.018,0,0,176.594,634.724,289.982)" gradientUnits="userSpaceOnUse"><stop offset="0" stop-opacity="1" style="stop-color:#223675"/><stop offset=".27027%" stop-opacity="1" style="stop-color:#223675"/><stop offset="100%" stop-opacity="1" style="stop-color:#2d489c"/></linearGradient><path d="M634.724 301.318 640.129 397.227 639.104 466.576 648.398 464.998 654.899 397.395 663.742 326.802 658.279 289.982 634.724 301.318z" fill="url(#_lgradient_1)"/><path d="M635.627 186.838v0C634.496 187.019 633.483 188.072 632.418 187.811 629.516 187.103 623.922 195.828 624.47 202.015L625.684 215.753 654.355 211.242 650.283 196.708C648.402 189.994 642.15 185.786 635.627 186.838z" fill="rgb(26,41,88)"/><path d="M585.106 241.936 582.914 237.728 575.707 231.275 575.317 233.249 577.29 235.954 568.452 232.742 568.149 234.343 575.378 237.351 575.299 237.63 572.187 236.499 572.27 238.421 574.734 239.511 574.655 239.771 572.296 238.91 572.384 240.889 574.094 241.657 574.019 241.908 572.402 241.312 572.467 242.686 577.088 244.348 580.692 246.787 586.229 253.901 591.13 249.897 585.106 241.936z" fill="rgb(255,197,144)"/><path d="M648.341 215.274 645.338 193.537 627.591 196.303 630.585 217.988C630.704 218.835 631.278 219.543 632.063 219.785L637.1 221.345 635.132 232.737 645.881 234.469 645.364 218.957 647.464 217.406C648.117 216.927 648.455 216.103 648.341 215.274z" fill="rgb(255,197,144)"/><linearGradient id="_lgradient_2" x1=".0025956379346379066" y1=".9517631905684674" x2=".8624295489790532" y2="-.13642746445399978" gradientTransform="matrix(57.404,0,0,86.179,608.42,224.175)" gradientUnits="userSpaceOnUse"><stop offset="0" stop-opacity="1" style="stop-color:#208aee"/><stop offset="81.2613%" stop-opacity="1" style="stop-color:#4da1f1"/><stop offset="100%" stop-opacity="1" style="stop-color:#4da1f1"/></linearGradient><path d="M663.097 310.354 608.42 306.071 614.387 282.058 613.628 263.212 623.808 236.345C626.364 231.987 624.514 227.108 621.511 225.269L620.252 224.762C619.595 224.357 618.915 224.18 618.24 224.18 618.227 224.18 618.214 224.18 618.205 224.18 618.262 224.175 618.324 224.175 618.381 224.175 618.56 224.175 618.736 224.185 618.911 224.208L665.824 229.236C661.988 230.079 660.191 236.229 661.458 240.172L665.346 257.244 661.458 240.172 664.417 260.167V260.158L660.401 272.789 656.092 272.09 655.991 279.586 657.999 280.345 657.486 281.965 663.097 310.354zM612.975 227.579C614.062 225.721 615.68 224.655 617.245 224.306 615.658 224.697 614.141 225.982 612.975 227.579z" fill-rule="evenodd" fill="url(#_lgradient_2)"/><path d="M645.495 227.062 637.253 254.269 636.328 226.07 645.495 227.062z" fill="rgb(255,255,255)"/><path d="M645.495 227.062 649.042 234.18 644.759 233.687 646.631 243.189 637.253 254.269 645.495 227.062z" fill="rgb(148,199,247)"/><path d="M636.324 226.005 632.041 232.569 636.32 233.058 631.962 241.503 637.253 254.269 636.324 226.005z" fill="rgb(148,199,247)"/><path d="M642.023 277.831 648.634 278.026C649.362 278.049 649.971 277.43 649.989 276.648L650.506 260.708C650.528 259.925 649.954 259.274 649.226 259.25L642.615 259.055C641.887 259.032 641.278 259.651 641.256 260.428L640.743 276.378C640.721 277.16 641.296 277.807 642.023 277.831z" fill="rgb(9,16,24)"/><path d="M643.027 261.262 645.149 261.313 645.666 260.782 645.171 260.228 643.049 260.167 642.527 260.703 643.027 261.262z" fill="rgb(147,149,152)"/><path d="M654.982 272.142 653.645 271.22 651.971 269.818 650.252 268.631 650.195 269.786 651.015 270.428 651.019 270.689 645.039 268.529 642.492 266.974 642.536 268.426 644.899 270.154 648.095 272.1 648.073 272.323 644.036 271.131 640.743 269.344 640.879 270.535 643.654 272.179 647.933 273.832 647.911 274.041 643.773 272.77 641.098 271.024 641.133 272.249 643.746 274.083 647.766 275.549 647.749 275.75 645.403 275.084 643.321 274.134 643.702 275.238 645.666 276.332 650.59 277.314 651.392 277.472 653.43 277.593 661.743 279.581 664.991 274.274 654.982 272.142z" fill="rgb(255,197,144)"/><linearGradient id="_lgradient_3" x1=".2699305243669379" y1=".919981249674473" x2=".625611280926648" y2="-.1178269852189282" gradientTransform="matrix(23.969,0,0,57.599,655.991,229.096)" gradientUnits="userSpaceOnUse"><stop offset="0" stop-opacity="1" style="stop-color:#208aee"/><stop offset="100%" stop-opacity="1" style="stop-color:#4da1f1"/></linearGradient><path d="M675.359 286.695C674.842 286.695 674.294 286.565 673.733 286.267L657.999 280.345 655.991 279.586 656.092 272.09 660.401 272.789 669.213 274.223 665.346 257.244 661.458 240.172C660.191 236.229 661.988 230.079 665.824 229.236 665.837 229.236 665.846 229.231 665.859 229.231 666.284 229.138 666.714 229.096 667.135 229.096 670.059 229.096 672.698 231.201 673.439 234.324L679.791 279.581C680.589 281.946 678.472 286.695 675.359 286.695z" fill="url(#_lgradient_3)"/><linearGradient id="_lgradient_4" x1=".4999655223825741" y1="1.0000000000000004" x2=".49996552238257413" y2="-4440892098500626e-31" gradientTransform="matrix(42.115,0,0,54.889,582.901,224.18)" gradientUnits="userSpaceOnUse"><stop offset="0" stop-opacity="1" style="stop-color:#208aee"/><stop offset="100%" stop-opacity="1" style="stop-color:#4da1f1"/></linearGradient><path d="M603.313 279.069C601.252 279.069 599.148 277.775 597.482 275.065L582.901 249.585 587.776 243.659 603.111 263.077 611.414 230.432C611.791 229.45 612.331 228.463 612.975 227.579 614.141 225.982 615.658 224.697 617.245 224.306 617.565 224.227 617.885 224.185 618.205 224.18 618.214 224.18 618.227 224.18 618.24 224.18 618.915 224.18 619.595 224.357 620.252 224.762L621.511 225.269C624.514 227.108 626.364 231.987 623.808 236.345L613.628 263.212 610.573 271.271C609.205 276.35 606.303 279.069 603.313 279.069zM612.638 238.705 612.09 267.267 613.628 263.208 612.638 238.705z" fill-rule="evenodd" fill="url(#_lgradient_4)"/><path d="M576.444 241.731 572.384 240.889 572.31 238.887 577.255 240.577 576.444 241.731z" fill="rgb(255,209,166)"/><path d="M577.566 240.577 572.27 238.421 572.187 236.499 578.171 239.39 577.566 240.577z" fill="rgb(255,209,166)"/><linearGradient id="_lgradient_5" x1="-5.288036410923212" y1="1.413206358098173" x2="-5.288036410923212" y2="-.5085428191303123" gradientTransform="matrix(1.538,0,0,28.562,612.09,238.705)" gradientUnits="userSpaceOnUse"><stop offset="0" stop-opacity="1" style="stop-color:#1f77d0"/><stop offset="100%" stop-opacity="1" style="stop-color:#4389d2"/></linearGradient><path d="M612.09 267.267 612.638 238.705 613.628 263.208 612.09 267.267z" fill="url(#_lgradient_5)"/><path d="M636.789 193.956C636.789 193.956 641.366 204.25 648.249 203.579L646.39 191.163 636.789 193.956z" fill="rgb(26,41,88)"/><path d="M632.076 195.153C632.076 195.153 631.747 202.732 627.346 204.203L625.483 196.051 632.076 195.153z" fill="rgb(26,41,88)"/><path d="M664.417 260.158 665.346 257.244 665.394 257.458 664.417 260.158z" fill="rgb(118,181,216)"/><linearGradient id="_lgradient_6" x1="-13.602366255144318" y1="3.30207551887972" x2="-3.6073631515421276" y2="-9.34804784992602" gradientTransform="matrix(3.888,0,0,19.995,661.458,240.172)" gradientUnits="userSpaceOnUse"><stop offset="0" stop-opacity="1" style="stop-color:#1f77d0"/><stop offset="81.2613%" stop-opacity="1" style="stop-color:#4389d2"/><stop offset="100%" stop-opacity="1" style="stop-color:#4389d2"/></linearGradient><path d="M664.417 260.167 661.458 240.172 665.346 257.244 664.417 260.158V260.167z" fill="url(#_lgradient_6)"/></g><path d="M562.773 483.984C562.773 483.984 562.4 484.481 561.994 484.214 561.329 483.767 560.457 482.412 560.175 481.916 559.851 481.362 558.779 478.503 558.779 478.503 558.779 478.503 559.77 479.062 560.203 480.208 560.841 481.885 562.773 483.984 562.773 483.984z" fill="rgb(233,214,184)"/><path d="M562.53 483.643C561.599 482.961 561.231 481.68 561.156 480.067 561.085 478.536 560.262 477.984 560.262 477.984 560.262 477.984 560.203 478.973 560.56 481.339 560.663 482.003 560.815 482.72 561.145 483.295 562.14 485.037 564.927 485.388 562.53 483.643z" fill="rgb(233,214,184)"/><path d="M562.99 484.783C562.99 484.783 561.685 483.493 561.529 482.586 561.42 481.956 561.394 478.901 561.394 478.901 561.394 478.901 562.129 479.767 562.146 480.99 562.167 482.784 562.99 484.783 562.99 484.783z" fill="rgb(233,214,184)"/><g><path d="M601.117 76.145C602.789 76.145 604.139 77.532 604.139 79.253 604.139 80.967 602.789 82.36 601.117 82.352 599.446 82.36 598.089 80.967 598.089 79.253 598.089 77.532 599.446 76.145 601.117 76.145zM600.624 94.48 615.353 79.367 600.624 64.017H566.705V79.253 94.488L600.624 94.48z" fill="rgb(253,191,20)"/><path d="M583.768 71.282 586.203 76.346 591.646 77.152 587.711 81.095 588.64 86.66 583.768 84.031 578.897 86.66 579.826 81.095 575.89 77.152 581.332 76.346 583.768 71.282z" fill="rgb(255,255,255)"/></g></g><g><path d="M263.179 260.028H264.707C265.198 260.028 265.597 260.426 265.597 260.917V286.407C265.597 286.898 265.198 287.297 264.707 287.297H263.179C262.688 287.297 262.289 286.898 262.289 286.407V260.917C262.289 260.426 262.688 260.028 263.179 260.028z" fill="rgb(63,61,86)"/><path d="M152.918 238.664H153.608C153.93 238.664 154.191 238.926 154.191 239.248V247.058C154.191 247.38 153.93 247.642 153.608 247.642H152.918C152.596 247.642 152.335 247.38 152.335 247.058V239.248C152.335 238.926 152.596 238.664 152.918 238.664z" fill="rgb(63,61,86)"/><path d="M152.925 255.1H153.702C154.065 255.1 154.36 255.395 154.36 255.758V270.068C154.36 270.431 154.065 270.726 153.702 270.726H152.925C152.562 270.726 152.267 270.431 152.267 270.068V255.758C152.267 255.395 152.562 255.1 152.925 255.1z" fill="rgb(63,61,86)"/><path d="M152.927 276.193H153.666C154.012 276.193 154.292 276.474 154.292 276.819V291.328C154.292 291.674 154.012 291.954 153.666 291.954H152.927C152.582 291.954 152.301 291.674 152.301 291.328V276.819C152.301 276.474 152.582 276.193 152.927 276.193z" fill="rgb(63,61,86)"/><path d="M167.24 208.997H250.22C257.867 208.997 264.075 215.205 264.075 222.851v197.25C264.075 427.747 257.867 433.955 250.22 433.955H167.24C159.594 433.955 153.386 427.747 153.386 420.101V222.851C153.386 215.205 159.594 208.997 167.24 208.997z" fill="rgb(26,115,232)"/><path d="M199.04 215.715H212.523C213.068 215.715 213.51 216.157 213.51 216.702V217.867C213.51 218.412 213.068 218.854 212.523 218.854H199.04C198.495 218.854 198.053 218.412 198.053 217.867V216.702C198.053 216.157 198.495 215.715 199.04 215.715z" fill="rgb(230,232,236)"/><circle vector-effect="non-scaling-stroke" cx="217.62785976349846" cy="217.28453559899185" r="1.780264242882538" fill="rgb(230,232,236)"/><path d="M261.685 221.731V423.223C261.684 428.222 257.428 432.274 252.178 432.273H166.282C161.033 432.274 156.777 428.222 156.775 423.223V221.731C156.775 219.33 157.777 217.027 159.56 215.329 161.343 213.631 163.761 212.677 166.282 212.678H179.136V214.25C179.137 218.367 182.641 221.704 186.964 221.705H230.647C234.97 221.705 238.475 218.367 238.475 214.25V212.678H252.178C254.7 212.677 257.118 213.631 258.901 215.329 260.684 217.027 261.685 219.33 261.685 221.731v0z" fill="rgb(255,255,255)"/></g><g><path d="M279.119 197.852h149.517v84.632H279.119z" transform="matrix(1,0,0,1,0,0)" fill="rgb(126,203,237)" fill-opacity=".4980392156862745"/><path d="M428.636 282.484 396.945 231.438 386.199 255.63 348.203 209.652 323.037 238.133 310.801 225.985 279.119 258.283V282.484H428.636v0z" fill="rgb(26,115,232)"/><ellipse vector-effect="non-scaling-stroke" cx="410.37859359697075" cy="217.38272845703216" rx="10.856004617921315" ry="8.95148344387826" fill="rgb(254,193,47)"/></g><g><path d="M166.051 238.604h85.544v57.669H166.051z" transform="matrix(1,0,0,1,0,0)" fill="rgb(191,229,246)"/><path d="M251.595 296.273 233.464 261.49 227.315 277.974 205.576 246.644 191.178 266.052 184.178 257.774 166.051 279.782V296.273H251.595v0z" fill="rgb(26,115,232)"/><ellipse vector-effect="non-scaling-stroke" cx="241.149384079853" cy="251.91223797569967" rx="6.2111129337557145" ry="6.099655056348013" fill="rgb(254,193,47)"/></g><clipPath id="_clipPath_g4PZTJeZbeox2jiNoXeKjl6PX8WElgNp"><path d="M39.554 45.101h945.004v531.565H39.554z" transform="matrix(1,0,0,1,0,0)" fill="rgb(255,255,255)"/></clipPath><g clip-path="url(#_clipPath_g4PZTJeZbeox2jiNoXeKjl6PX8WElgNp)"><g><g><path d="M274.833 184.109h84.369v5.029H274.833z" transform="matrix(1,0,0,1,0,0)" fill="rgb(26,115,232)"/><path d="M274.833 331.056h84.369v5.029H274.833z" transform="matrix(1,0,0,1,0,0)" fill="rgb(108,99,255)"/><g style="opacity:.2"><g opacity=".2"><path d="M274.833 342.23h156.444v5.029H274.833z" transform="matrix(1,0,0,1,0,0)" fill="rgb(108,99,255)"/></g></g><g style="opacity:.2"><g opacity=".2"><path d="M274.833 349.498h156.444v5.029H274.833z" transform="matrix(1,0,0,1,0,0)" fill="rgb(108,99,255)"/></g></g><g style="opacity:.2"><g opacity=".2"><path d="M274.833 356.761h156.444v5.029H274.833z" transform="matrix(1,0,0,1,0,0)" fill="rgb(108,99,255)"/></g></g><g style="opacity:.2"><g opacity=".2"><path d="M276.51 289.71h36.317v33.524H276.51z" transform="matrix(1,0,0,1,0,0)" fill="rgb(108,99,255)"/></g></g><g style="opacity:.2"><g opacity=".2"><path d="M393.842 289.71h36.317v33.524H393.842z" transform="matrix(1,0,0,1,0,0)" fill="rgb(108,99,255)"/></g></g><g style="opacity:.2"><g opacity=".2"><path d="M334.338 289.71h36.317v33.524H334.338z" transform="matrix(1,0,0,1,0,0)" fill="rgb(108,99,255)"/></g></g><g style="opacity:.2"><g opacity=".2"><path d="M446.439 208.558h106.902v78.685H446.439z" transform="matrix(1,0,0,1,0,0)" fill="rgb(108,99,255)"/></g></g><path d="M457.703 224.527h84.369v5.029H457.703z" transform="matrix(1,0,0,1,0,0)" fill="rgb(237,237,244)"/><path d="M457.703 234.959h84.369v5.029H457.703z" transform="matrix(1,0,0,1,0,0)" fill="rgb(237,237,244)"/><g style="opacity:.2"><g opacity=".2"><path d="M165.235 308.344h86.45v63.632H165.235z" transform="matrix(1,0,0,1,0,0)" fill="rgb(108,99,255)"/></g></g><path d="M457.703 245.389h84.369v5.029H457.703z" transform="matrix(1,0,0,1,0,0)" fill="rgb(237,237,244)"/><path d="M174.344 321.258h68.228v4.067H174.344z" transform="matrix(1,0,0,1,0,0)" fill="rgb(237,237,244)"/><path d="M457.703 255.816h84.369v5.029H457.703z" transform="matrix(1,0,0,1,0,0)" fill="rgb(237,237,244)"/><path d="M174.344 329.695h68.228v4.067H174.344z" transform="matrix(1,0,0,1,0,0)" fill="rgb(237,237,244)"/><path d="M457.703 266.247h84.369v5.029H457.703z" transform="matrix(1,0,0,1,0,0)" fill="rgb(237,237,244)"/><path d="M174.344 338.13h68.228v4.067H174.344z" transform="matrix(1,0,0,1,0,0)" fill="rgb(237,237,244)"/><path d="M445.551 301.695h107.812v23.848H445.551z" transform="matrix(1,0,0,1,0,0)" fill="rgb(26,115,232)"/><path d="M166.567 382.409h86.451v23.848H166.567z" transform="matrix(1,0,0,1,0,0)" fill="rgb(26,115,232)"/><path d="M174.344 346.562h68.228v4.067H174.344z" transform="matrix(1,0,0,1,0,0)" fill="rgb(237,237,244)"/><path d="M455.155 343.341h54.203v9.492H455.155z" transform="matrix(1,0,0,1,0,0)" fill="rgb(254,193,47)"/><path d="M174.344 354.997h68.228v4.067H174.344z" transform="matrix(1,0,0,1,0,0)" fill="rgb(237,237,244)"/></g></g></g></g></g></svg>